<?xml version="1.0" encoding="utf-8"?>
<!-- Generator: Adobe Illustrator 24.0.2, SVG Export Plug-In . SVG Version: 6.00 Build 0)  -->
<svg version="1.1" id="Layer_1" xmlns="http://www.w3.org/2000/svg" xmlns:xlink="http://www.w3.org/1999/xlink" x="0px" y="0px"
	 width="123px" height="123px" viewBox="0 0 123 123" style="enable-background:new 0 0 123 123;" xml:space="preserve">
<style type="text/css">
	.st0{fill:#DB352A;}
	.st1{fill:#fff;}
</style>
<g>
	<g>
		<path class="st0" d="M24.9,91.6V70.1c0-0.6,0.5-1.1,1.1-1.1h6.2c0.6,0,1.1,0.5,1.1,1.1v21.4H24.9z"/>
	</g>
	<g>
		<path class="st1" d="M32.2,102.8H26c-1,0-1.7-0.8-1.7-1.7V70.1c0-1,0.8-1.7,1.7-1.7h6.2c1,0,1.7,0.8,1.7,1.7V101
			C33.9,102,33.2,102.8,32.2,102.8z M26,69.7c-0.3,0-0.5,0.2-0.5,0.5V101c0,0.2,0.2,0.5,0.5,0.5h6.2c0.2,0,0.5-0.2,0.5-0.5V70.1
			c0-0.3-0.2-0.5-0.5-0.5H26z"/>
	</g>
	<g>
		<path class="st1" d="M24.9,101.8c-0.3,0-0.6-0.2-0.6-0.5L20,71.7c-0.1-0.4,0-0.9,0.3-1.3c0.3-0.4,0.7-0.6,1.1-0.7l2.9-0.4
			c0.3-0.1,0.7,0.2,0.7,0.5c0.1,0.4-0.2,0.7-0.5,0.7l-2.9,0.4c-0.1,0-0.2,0.1-0.3,0.2c-0.1,0.1-0.1,0.2-0.1,0.3l4.3,29.6
			C25.6,101.5,25.4,101.8,24.9,101.8C25,101.8,25,101.8,24.9,101.8z"/>
	</g>
	<g>
		<path class="st1" d="M24.8,101.1c-0.3,0-0.5-0.2-0.6-0.5l-7.8-27.8c-0.2-0.9,0.3-1.9,1.2-2.1l3.2-0.7c0.3-0.1,0.7,0.1,0.8,0.5
			c0.1,0.3-0.1,0.7-0.5,0.8L18,72c-0.2,0.1-0.3,0.3-0.3,0.5l7.8,27.8c0.1,0.3-0.1,0.7-0.4,0.8C25,101.1,24.9,101.1,24.8,101.1z"/>
	</g>
	<g>
		<path class="st1" d="M24.9,101.7c-0.2,0-0.5-0.1-0.6-0.4L12.9,74.7c-0.3-0.9,0.1-1.9,1-2.2l3-1c0.3-0.1,0.7,0.1,0.8,0.4
			c0.1,0.3-0.1,0.7-0.4,0.8l-2.9,1c-0.2,0.1-0.3,0.3-0.2,0.5l11.4,26.6c0.1,0.3,0,0.7-0.3,0.8C25.1,101.7,25,101.7,24.9,101.7z"/>
	</g>
	<g>
		<path class="st1" d="M29.3,100.9c-0.9,0-1.7-0.8-1.7-1.7s0.8-1.7,1.7-1.7c0.9,0,1.7,0.8,1.7,1.7S30.2,100.9,29.3,100.9z
			 M29.3,98.8c-0.2,0-0.4,0.2-0.4,0.4c0,0.2,0.2,0.4,0.4,0.4s0.4-0.2,0.4-0.4C29.7,99,29.5,98.8,29.3,98.8z"/>
	</g>
	<g>
		<path class="st0" d="M103,26.7v-3.6c0-1.2-1-2.3-2.3-2.3h-3.2c-1.2,0-2.3,1-2.3,2.3v3.6H103z"/>
	</g>
	<g>
		<polygon class="st0" points="99.7,67.8 103,59.7 95.2,59.7 98.6,67.8 		"/>
	</g>
	<g>
		<path class="st1" d="M103,60.4h-7.8c-0.4,0-0.6-0.3-0.6-0.6V46.8c0-0.4,0.3-0.6,0.6-0.6c0.4,0,0.6,0.3,0.6,0.6v12.3h6.5V46.8
			c0-0.4,0.3-0.6,0.6-0.6c0.4,0,0.6,0.3,0.6,0.6v12.9C103.6,60.1,103.4,60.4,103,60.4z"/>
	</g>
	<g>
		<path class="st1" d="M95.2,42.5c-0.4,0-0.6-0.3-0.6-0.6V31.6c0-0.4,0.3-0.6,0.6-0.6h7.8c0.4,0,0.6,0.3,0.6,0.6v10.2
			c0,0.4-0.3,0.6-0.6,0.6c-0.4,0-0.6-0.3-0.6-0.6v-9.6h-6.5v9.6C95.9,42.2,95.6,42.5,95.2,42.5z"/>
	</g>
	<g>
		<path class="st1" d="M100.7,60.4h-3.2c-0.4,0-0.6-0.3-0.6-0.6V46.8c0-0.4,0.3-0.6,0.6-0.6s0.6,0.3,0.6,0.6v12.3h1.9V46.8
			c0-0.4,0.3-0.6,0.6-0.6c0.4,0,0.6,0.3,0.6,0.6v12.9C101.3,60.1,101.1,60.4,100.7,60.4z"/>
	</g>
	<g>
		<path class="st1" d="M100.7,42.5c-0.4,0-0.6-0.3-0.6-0.6v-9.6h-1.9v9.6c0,0.4-0.3,0.6-0.6,0.6s-0.6-0.3-0.6-0.6V31.6
			c0-0.4,0.3-0.6,0.6-0.6h3.2c0.4,0,0.6,0.3,0.6,0.6v10.2C101.3,42.2,101.1,42.5,100.7,42.5z"/>
	</g>
	<g>
		<path class="st1" d="M103.6,32.3h-9c-0.4,0-0.6-0.3-0.6-0.6v-4.9c0-0.4,0.3-0.6,0.6-0.6h9c0.4,0,0.6,0.3,0.6,0.6v4.9
			C104.2,32,104,32.3,103.6,32.3z M95.3,31h7.7v-3.6h-7.7V31z"/>
	</g>
	<g>
		<path class="st1" d="M103,27.4h-7.8c-0.4,0-0.6-0.3-0.6-0.6v-3.6c0-1.6,1.3-2.9,2.9-2.9h3.2c1.6,0,2.9,1.3,2.9,2.9v3.6
			C103.6,27.1,103.4,27.4,103,27.4z M95.9,26.1h6.5v-3c0-0.9-0.7-1.6-1.6-1.6h-3.2c-0.9,0-1.6,0.7-1.6,1.6V26.1z"/>
	</g>
	<g>
		<path class="st1" d="M99.7,68.5h-1.1c-0.3,0-0.5-0.2-0.6-0.4L94.6,60c-0.1-0.2-0.1-0.4,0.1-0.6c0.1-0.2,0.3-0.3,0.5-0.3h7.8
			c0.2,0,0.4,0.1,0.5,0.3c0.1,0.2,0.1,0.4,0.1,0.6l-3.3,8.1C100.2,68.3,99.9,68.5,99.7,68.5z M99,67.2h0.2l2.8-6.8h-5.8L99,67.2z"/>
	</g>
	<g>
		<path class="st1" d="M99.1,70.9c-0.4,0-0.6-0.3-0.6-0.6v-2.4c0-0.4,0.3-0.6,0.6-0.6c0.4,0,0.6,0.3,0.6,0.6v2.4
			C99.8,70.6,99.5,70.9,99.1,70.9z"/>
	</g>
	<g>
		<path class="st0" d="M82.5,38.5H50.8c-0.7,0-1.3,0.7-1.3,1.6v3.8h34.2v-3.8C83.8,39.2,83.2,38.5,82.5,38.5z M52.9,42.2
			c-0.5,0-1-0.4-1-1c0-0.5,0.4-1,1-1c0.5,0,1,0.4,1,1C53.9,41.7,53.4,42.2,52.9,42.2z M56.1,42.2c-0.5,0-1-0.4-1-1c0-0.5,0.4-1,1-1
			c0.5,0,1,0.4,1,1C57.1,41.7,56.6,42.2,56.1,42.2z M59.3,42.2c-0.5,0-1-0.4-1-1c0-0.5,0.4-1,1-1c0.5,0,1,0.4,1,1
			C60.3,41.7,59.8,42.2,59.3,42.2z"/>
	</g>
	<g>
		<path class="st1" d="M82.5,65.2H50.8c-1,0-1.9-0.9-1.9-1.9V39.7c0-1,0.9-1.9,1.9-1.9h31.7c1,0,1.9,0.9,1.9,1.9v23.5
			C84.4,64.3,83.5,65.2,82.5,65.2z M50.8,39.1c-0.3,0-0.6,0.3-0.6,0.6v23.5c0,0.3,0.3,0.6,0.6,0.6h31.7c0.3,0,0.6-0.3,0.6-0.6V39.7
			c0-0.3-0.3-0.6-0.6-0.6H50.8z"/>
	</g>
	<g>
		<path class="st1" d="M83.8,44.5H49.5c-0.4,0-0.6-0.3-0.6-0.6c0-0.4,0.3-0.6,0.6-0.6h34.2c0.4,0,0.6,0.3,0.6,0.6
			C84.4,44.2,84.1,44.5,83.8,44.5z"/>
	</g>
	<g>
		<g>
			<path class="st1" d="M61.8,55.8c-0.1,0-0.2,0-0.2,0l-7.3-2.9c-0.2-0.1-0.4-0.3-0.4-0.6c0-0.3,0.2-0.5,0.4-0.6l7.3-2.7
				c0.3-0.1,0.7,0,0.8,0.4c0.1,0.3,0,0.7-0.4,0.8l-5.7,2.1l5.7,2.3c0.3,0.1,0.5,0.5,0.4,0.8C62.3,55.6,62,55.8,61.8,55.8z"/>
		</g>
		<g>
			<path class="st1" d="M71.5,55.8c-0.3,0-0.5-0.2-0.6-0.4c-0.1-0.3,0-0.7,0.4-0.8l5.7-2.1l-5.7-2.3c-0.3-0.1-0.5-0.5-0.4-0.8
				c0.1-0.3,0.5-0.5,0.8-0.4l7.3,2.9c0.2,0.1,0.4,0.3,0.4,0.6c0,0.3-0.2,0.5-0.4,0.6l-7.3,2.7C71.6,55.8,71.6,55.8,71.5,55.8z"/>
		</g>
		<g>
			<path class="st1" d="M63.4,57.5c-0.1,0-0.3,0-0.4-0.1c-0.3-0.2-0.4-0.6-0.2-0.9l6.3-9c0.2-0.3,0.6-0.4,0.9-0.2
				c0.3,0.2,0.4,0.6,0.2,0.9l-6.3,9C63.8,57.4,63.6,57.5,63.4,57.5z"/>
		</g>
	</g>
	<path class="st1" d="M67.2,81.7c-0.4,0-0.6-0.3-0.6-0.6v-1.4c0,0,0,0,0,0h-1.1c-0.3,0-0.6-0.2-0.6-0.5c-0.2-0.7-0.4-1.3-0.8-1.9
		c-0.2-0.3-0.1-0.6,0.1-0.8l0.8-0.8c0,0,0,0,0,0l-1.5-1.5c0,0,0,0,0,0c0,0,0,0,0,0l-0.8,0.8c-0.2,0.2-0.5,0.2-0.8,0.1
		c-0.6-0.3-1.2-0.6-1.9-0.8c-0.3-0.1-0.5-0.3-0.5-0.6v-1.1c0,0,0,0,0,0h-2.2c0,0,0,0,0,0v1.1c0,0.3-0.2,0.6-0.5,0.6
		c-0.7,0.2-1.3,0.4-1.9,0.8c-0.3,0.2-0.6,0.1-0.8-0.1l-0.8-0.8c0,0,0,0,0,0c0,0,0,0,0,0l-1.5,1.5c0,0,0,0,0,0l0.8,0.8
		c0.2,0.2,0.2,0.5,0.1,0.8c-0.3,0.6-0.6,1.2-0.8,1.9c-0.1,0.3-0.3,0.5-0.6,0.5h-1.1c0,0,0,0,0,0V81c0,0.4-0.3,0.6-0.6,0.6
		c-0.4,0-0.6-0.3-0.6-0.6v-1.4c0-0.7,0.6-1.3,1.3-1.3h0.6c0.1-0.4,0.3-0.9,0.5-1.3l-0.4-0.4c-0.5-0.5-0.5-1.3,0-1.9l1.5-1.5
		c0.5-0.5,1.4-0.5,1.9,0l0.4,0.4c0.4-0.2,0.8-0.4,1.3-0.5v-0.6c0-0.7,0.6-1.3,1.3-1.3h2.2c0.7,0,1.3,0.6,1.3,1.3v0.6
		c0.4,0.1,0.9,0.3,1.3,0.5l0.4-0.4c0.2-0.2,0.6-0.4,0.9-0.4c0,0,0,0,0,0c0.4,0,0.7,0.1,0.9,0.4l1.5,1.5c0.5,0.5,0.5,1.3,0,1.9
		l-0.4,0.4c0.2,0.4,0.4,0.8,0.5,1.3h0.6c0.7,0,1.3,0.6,1.3,1.3V81C67.8,81.4,67.6,81.7,67.2,81.7z M60.9,81.4
		c-0.4,0-0.6-0.3-0.6-0.6c0-1.1-0.9-1.9-1.9-1.9c-1.1,0-1.9,0.9-1.9,1.9c0,0.4-0.3,0.6-0.6,0.6c-0.4,0-0.6-0.3-0.6-0.6
		c0-1.8,1.4-3.2,3.2-3.2c1.8,0,3.2,1.4,3.2,3.2C61.5,81.1,61.2,81.4,60.9,81.4z"/>
	<g>
		<g>
			<path class="st1" d="M40,49.5c-0.4,0-0.6-0.3-0.6-0.6v-2.8c0-0.4,0.3-0.6,0.6-0.6c0.4,0,0.6,0.3,0.6,0.6v2.8
				C40.6,49.2,40.4,49.5,40,49.5z"/>
		</g>
		<g>
			<path class="st1" d="M47.4,92.9h-6.1c-1,0-1.9-0.8-1.9-1.9V50.8c0-0.4,0.3-0.6,0.6-0.6c0.4,0,0.6,0.3,0.6,0.6v40.2
				c0,0.3,0.3,0.6,0.6,0.6h6.1c0.4,0,0.6,0.3,0.6,0.6C48,92.6,47.7,92.9,47.4,92.9z"/>
		</g>
		<g>
			<path class="st1" d="M52.6,92.9h-3.2c-0.4,0-0.6-0.3-0.6-0.6c0-0.4,0.3-0.6,0.6-0.6h3.2c0.4,0,0.6,0.3,0.6,0.6
				C53.2,92.6,52.9,92.9,52.6,92.9z"/>
		</g>
		<g>
			<path class="st1" d="M56.1,92.9h-1.3c-0.4,0-0.6-0.3-0.6-0.6c0-0.4,0.3-0.6,0.6-0.6h1.3c0.4,0,0.6,0.3,0.6,0.6
				C56.7,92.6,56.5,92.9,56.1,92.9z"/>
		</g>
		<g>
			<path class="st1" d="M40,44.8c-0.4,0-0.6-0.3-0.6-0.6v-1c0-1,0.8-1.9,1.9-1.9h8.3c0.4,0,0.6,0.3,0.6,0.6c0,0.4-0.3,0.6-0.6,0.6
				h-8.3c-0.3,0-0.6,0.3-0.6,0.6v1C40.6,44.5,40.4,44.8,40,44.8z"/>
		</g>
		<g>
			<path class="st1" d="M108.3,92.9H58.2c-0.4,0-0.6-0.3-0.6-0.6c0-0.4,0.3-0.6,0.6-0.6h50.1c0.3,0,0.6-0.3,0.6-0.6v-48
				c0-0.3-0.3-0.6-0.6-0.6H83.8c-0.4,0-0.6-0.3-0.6-0.6c0-0.4,0.3-0.6,0.6-0.6h24.6c1,0,1.9,0.8,1.9,1.9v48
				C110.2,92.1,109.4,92.9,108.3,92.9z"/>
		</g>
		<g>
			<path class="st1" d="M43.5,81.7c-0.4,0-0.6-0.3-0.6-0.6V46.8c0-0.4,0.3-0.6,0.6-0.6h6c0.4,0,0.6,0.3,0.6,0.6
				c0,0.4-0.3,0.6-0.6,0.6h-5.4V81C44.1,81.4,43.8,81.7,43.5,81.7z"/>
		</g>
		<g>
			<path class="st1" d="M106.1,81.7H43.5c-0.4,0-0.6-0.3-0.6-0.6s0.3-0.6,0.6-0.6h62V47.5H83.8c-0.4,0-0.6-0.3-0.6-0.6
				c0-0.4,0.3-0.6,0.6-0.6h22.3c0.4,0,0.6,0.3,0.6,0.6V81C106.7,81.4,106.4,81.7,106.1,81.7z"/>
		</g>
		<g>
			<path class="st1" d="M80.5,99.8H69.1c-0.4,0-0.6-0.3-0.6-0.6v-6.9c0-0.4,0.3-0.6,0.6-0.6h11.4c0.4,0,0.6,0.3,0.6,0.6v6.9
				C81.1,99.5,80.9,99.8,80.5,99.8z M69.7,98.5h10.2v-5.6H69.7V98.5z"/>
		</g>
		<g>
			<path class="st1" d="M86.7,102.8H62.9c-1,0-1.8-0.8-1.8-1.8v-0.7c0-1,0.8-1.8,1.8-1.8h23.8c1,0,1.8,0.8,1.8,1.8v0.7
				C88.4,102,87.6,102.8,86.7,102.8z M62.9,99.8c-0.3,0-0.5,0.2-0.5,0.5v0.7c0,0.3,0.2,0.5,0.5,0.5h23.8c0.3,0,0.5-0.2,0.5-0.5v-0.7
				c0-0.3-0.2-0.5-0.5-0.5H62.9z"/>
		</g>
		<g>
			<path class="st1" d="M74.8,89.2c-1.4,0-2.5-1.1-2.5-2.5c0-1.4,1.1-2.5,2.5-2.5c1.4,0,2.5,1.1,2.5,2.5
				C77.3,88,76.2,89.2,74.8,89.2z M74.8,85.4c-0.7,0-1.2,0.5-1.2,1.2c0,0.7,0.5,1.2,1.2,1.2c0.7,0,1.2-0.5,1.2-1.2
				C76,86,75.4,85.4,74.8,85.4z"/>
		</g>
	</g>
	<g>
		<g>
			<path class="st1" d="M95.1,102.8h-41c-0.4,0-0.6-0.3-0.6-0.6s0.3-0.6,0.6-0.6h41c0.4,0,0.6,0.3,0.6,0.6S95.5,102.8,95.1,102.8z"
				/>
		</g>
		<g>
			<path class="st1" d="M51.9,102.8h-3.5c-0.4,0-0.6-0.3-0.6-0.6s0.3-0.6,0.6-0.6h3.5c0.4,0,0.6,0.3,0.6,0.6S52.3,102.8,51.9,102.8z
				"/>
		</g>
		<g>
			<path class="st1" d="M46.2,102.8h-1.5c-0.4,0-0.6-0.3-0.6-0.6s0.3-0.6,0.6-0.6h1.5c0.4,0,0.6,0.3,0.6,0.6S46.6,102.8,46.2,102.8z
				"/>
		</g>
		<g>
			<path class="st1" d="M99.4,102.8h-2.2c-0.4,0-0.6-0.3-0.6-0.6s0.3-0.6,0.6-0.6h2.2c0.4,0,0.6,0.3,0.6,0.6S99.8,102.8,99.4,102.8z
				"/>
		</g>
		<g>
			<path class="st1" d="M102.4,102.8h-0.9c-0.4,0-0.6-0.3-0.6-0.6s0.3-0.6,0.6-0.6h0.9c0.4,0,0.6,0.3,0.6,0.6
				S102.8,102.8,102.4,102.8z"/>
		</g>
		<g>
			<path class="st1" d="M104.8,102.8h-0.2c-0.4,0-0.6-0.3-0.6-0.6s0.3-0.6,0.6-0.6h0.2c0.4,0,0.6,0.3,0.6,0.6
				S105.2,102.8,104.8,102.8z"/>
		</g>
	</g>
	<path class="st1" d="M101.8,71.7h-9c-0.4,0-0.6-0.3-0.6-0.6c0-0.4,0.3-0.6,0.6-0.6h9c0.4,0,0.6,0.3,0.6,0.6
		C102.5,71.4,102.2,71.7,101.8,71.7z"/>
	<path class="st1" d="M90.7,71.7H86c-0.4,0-0.6-0.3-0.6-0.6c0-0.4,0.3-0.6,0.6-0.6h4.7c0.4,0,0.6,0.3,0.6,0.6
		C91.3,71.4,91.1,71.7,90.7,71.7z"/>
	<path class="st1" d="M83.9,71.7h-2.4c-0.4,0-0.6-0.3-0.6-0.6c0-0.4,0.3-0.6,0.6-0.6h2.4c0.4,0,0.6,0.3,0.6,0.6
		C84.6,71.4,84.3,71.7,83.9,71.7z"/>
	<path class="st1" d="M79.3,71.7h-1.1c-0.4,0-0.6-0.3-0.6-0.6c0-0.4,0.3-0.6,0.6-0.6h1.1c0.4,0,0.6,0.3,0.6,0.6
		C79.9,71.4,79.6,71.7,79.3,71.7z"/>
</g>
</svg>
