<?xml version="1.0" encoding="utf-8"?>
<!-- Generator: Adobe Illustrator 24.0.2, SVG Export Plug-In . SVG Version: 6.00 Build 0)  -->
<svg version="1.1" id="Layer_1" xmlns="http://www.w3.org/2000/svg" xmlns:xlink="http://www.w3.org/1999/xlink" x="0px" y="0px"
	 width="123px" height="123px" viewBox="0 0 123 123" style="enable-background:new 0 0 123 123;" xml:space="preserve">
<style type="text/css">
	.st0{fill:#DB352A;}
	.st1{fill:#fff;}
</style>
<g>
	<g>
		<path class="st0" d="M47.5,43.2c-1.2-1.3-1.9-3-1.9-4.9c0-2.8,1.6-5.3,3.9-6.5l-2.1-4c-3.7,2-6.2,5.9-6.2,10.5c0,3,1.1,5.8,3,7.9
			L47.5,43.2z"/>
	</g>
	<g>
		<path class="st0" d="M87.9,42.7c-9.7-2.1-19.3,4.1-21.4,13.8c-2.1,9.7,4.1,19.3,13.8,21.4c9.7,2.1,19.3-4.1,21.4-13.8
			S97.7,44.8,87.9,42.7z M97.2,63.2c-1.6,7.2-8.7,11.8-15.9,10.3c-7.2-1.6-11.8-8.7-10.3-15.9s8.7-11.8,15.9-10.3
			C94.2,48.8,98.8,55.9,97.2,63.2z"/>
	</g>
	<g>
		<path class="st1" d="M84.2,79c-1.3,0-2.6-0.1-4-0.4c-4.9-1-9-3.9-11.8-8.1c-2.7-4.2-3.6-9.2-2.6-14.1c1-4.9,3.9-9,8.1-11.8
			c4.2-2.7,9.2-3.6,14.1-2.6c4.9,1,9,3.9,11.8,8.1c2.7,4.2,3.6,9.2,2.6,14.1c-1,4.9-3.9,9-8.1,11.8C91.3,78,87.8,79,84.2,79z
			 M84.1,43c-3.3,0-6.6,0.9-9.4,2.8c-3.9,2.5-6.6,6.4-7.6,10.9c-1,4.5-0.1,9.2,2.4,13.1c2.5,3.9,6.4,6.6,10.9,7.6
			c4.5,1,9.2,0.1,13.1-2.4c3.9-2.5,6.6-6.4,7.6-10.9l0,0c1-4.5,0.1-9.2-2.4-13.1c-2.5-3.9-6.4-6.6-10.9-7.6
			C86.6,43.1,85.4,43,84.1,43z"/>
	</g>
	<g>
		<path class="st1" d="M84.2,74.4c-2.3,0-4.6-0.6-6.7-1.7c-6.8-3.7-9.3-12.3-5.6-19.1c3.5-6.3,11.1-9,17.7-6.2
			c0.3,0.1,0.5,0.5,0.3,0.8c-0.1,0.3-0.5,0.5-0.8,0.3c-6-2.5-12.9-0.1-16.1,5.6c-3.4,6.2-1.1,13.9,5,17.3c6.2,3.4,13.9,1.1,17.3-5
			c0.2-0.3,0.6-0.4,0.9-0.3c0.3,0.2,0.4,0.6,0.3,0.9C93.9,71.8,89.1,74.4,84.2,74.4z"/>
	</g>
	<g>
		<path class="st1" d="M95.9,67.4c-0.1,0-0.2,0-0.3-0.1c-0.3-0.2-0.4-0.6-0.3-0.9c1.4-2.6,1.9-5.4,1.4-8.3c-0.1-0.3,0.2-0.7,0.5-0.7
			c0.3-0.1,0.7,0.2,0.7,0.5c0.5,3.1,0,6.3-1.5,9.1C96.4,67.3,96.2,67.4,95.9,67.4z"/>
	</g>
	<g>
		<path class="st1" d="M96.6,56c-0.3,0-0.5-0.2-0.6-0.4c-0.5-1.1-1.1-2.2-1.8-3.2c-0.2-0.3-0.2-0.7,0.1-0.9c0.3-0.2,0.7-0.2,0.9,0.1
			c0.8,1.1,1.5,2.2,2,3.5c0.1,0.3,0,0.7-0.4,0.8C96.8,56,96.7,56,96.6,56z"/>
	</g>
	<g>
		<path class="st1" d="M92.8,50.7c-0.1,0-0.3,0-0.4-0.1c-0.3-0.2-0.6-0.5-0.9-0.7c-0.3-0.2-0.4-0.6-0.2-0.9c0.2-0.3,0.6-0.4,0.9-0.2
			c0.3,0.2,0.7,0.5,1,0.8c0.3,0.2,0.3,0.6,0.1,0.9C93.2,50.7,93,50.7,92.8,50.7z"/>
	</g>
	<g>
		<path class="st1" d="M115.9,102.3c-1.3,0-2.5-0.5-3.4-1.5L99.4,86.3c-1.7-1.9-1.5-4.8,0.3-6.5l2.3-2c1.9-1.7,4.8-1.5,6.5,0.3
			l13.1,14.5c0.8,0.9,1.2,2.1,1.2,3.3c-0.1,1.2-0.6,2.4-1.5,3.2l-2.3,2C118.1,101.9,117,102.3,115.9,102.3z M105,77.9
			c-0.8,0-1.6,0.3-2.2,0.9l-2.3,2c-1.4,1.2-1.5,3.3-0.2,4.7l13.1,14.5c1.2,1.4,3.3,1.5,4.7,0.2l2.3-2c0,0,0,0,0,0
			c0.7-0.6,1-1.4,1.1-2.3c0-0.9-0.3-1.7-0.8-2.4L107.5,79C106.9,78.3,105.9,77.9,105,77.9z"/>
	</g>
	<g>
		<path class="st1" d="M119.1,95.7c-0.2,0-0.3-0.1-0.5-0.2l-7.3-8.1c-0.2-0.3-0.2-0.7,0-0.9c0.3-0.2,0.7-0.2,0.9,0l7.3,8.1
			c0.2,0.3,0.2,0.7,0,0.9C119.4,95.6,119.2,95.7,119.1,95.7z"/>
	</g>
	<g>
		<path class="st1" d="M110.3,86c-0.2,0-0.3-0.1-0.5-0.2l-2.2-2.4c-0.2-0.3-0.2-0.7,0-0.9c0.3-0.2,0.7-0.2,0.9,0l2.2,2.4
			c0.2,0.3,0.2,0.7,0,0.9C110.6,85.9,110.4,86,110.3,86z"/>
	</g>
	<g>
		<path class="st1" d="M106.6,81.8c-0.2,0-0.3-0.1-0.5-0.2l-0.6-0.6c-0.2-0.3-0.2-0.7,0-0.9c0.3-0.2,0.7-0.2,0.9,0l0.6,0.6
			c0.2,0.3,0.2,0.7,0,0.9C106.9,81.8,106.7,81.8,106.6,81.8z"/>
	</g>
	<g>
		<path class="st1" d="M99.3,81.7c-0.2,0-0.3-0.1-0.5-0.2l-4.9-5.4c-0.2-0.3-0.2-0.7,0-0.9c0.3-0.2,0.7-0.2,0.9,0l4.9,5.4
			c0.2,0.3,0.2,0.7,0,0.9C99.6,81.7,99.4,81.7,99.3,81.7z"/>
	</g>
	<g>
		<path class="st1" d="M103.3,78.1c-0.2,0-0.3-0.1-0.5-0.2l-4.9-5.4c-0.2-0.3-0.2-0.7,0-0.9c0.3-0.2,0.7-0.2,0.9,0l4.9,5.4
			c0.2,0.3,0.2,0.7,0,0.9C103.6,78.1,103.4,78.1,103.3,78.1z"/>
	</g>
	<g>
		<g>
			<path class="st1" d="M86.5,42.5c-0.4,0-0.6-0.3-0.6-0.6v-7.2c0-0.3-0.2-0.5-0.5-0.5H73.9c-0.4,0-0.6-0.3-0.6-0.6
				c0-0.4,0.3-0.6,0.6-0.6h11.4c1,0,1.8,0.8,1.8,1.8v7.2C87.2,42.2,86.9,42.5,86.5,42.5z"/>
		</g>
		<g>
			<path class="st1" d="M19.4,36.3c-0.4,0-0.6-0.3-0.6-0.6v-1c0-1,0.8-1.8,1.8-1.8H32c0.4,0,0.6,0.3,0.6,0.6c0,0.4-0.3,0.6-0.6,0.6
				H20.6c-0.3,0-0.5,0.2-0.5,0.5v1C20.1,36,19.8,36.3,19.4,36.3z"/>
		</g>
		<g>
			<path class="st1" d="M19.4,40.9c-0.4,0-0.6-0.3-0.6-0.6v-2.7c0-0.4,0.3-0.6,0.6-0.6c0.4,0,0.6,0.3,0.6,0.6v2.7
				C20.1,40.6,19.8,40.9,19.4,40.9z"/>
		</g>
		<g>
			<path class="st1" d="M19.4,76.2c-0.4,0-0.6-0.3-0.6-0.6V42.1c0-0.4,0.3-0.6,0.6-0.6c0.4,0,0.6,0.3,0.6,0.6v33.5
				C20.1,75.9,19.8,76.2,19.4,76.2z"/>
		</g>
		<g>
			<path class="st1" d="M26.5,82.7h-5.9c-1,0-1.8-0.8-1.8-1.8v-3.2c0-0.4,0.3-0.6,0.6-0.6c0.4,0,0.6,0.3,0.6,0.6v3.2
				c0,0.3,0.2,0.5,0.5,0.5h5.9c0.4,0,0.6,0.3,0.6,0.6C27.2,82.5,26.9,82.7,26.5,82.7z"/>
		</g>
		<g>
			<path class="st1" d="M31.6,82.7h-3.1c-0.4,0-0.6-0.3-0.6-0.6c0-0.4,0.3-0.6,0.6-0.6h3.1c0.4,0,0.6,0.3,0.6,0.6
				C32.2,82.5,31.9,82.7,31.6,82.7z"/>
		</g>
		<g>
			<path class="st1" d="M35,82.7h-1.3c-0.4,0-0.6-0.3-0.6-0.6c0-0.4,0.3-0.6,0.6-0.6H35c0.4,0,0.6,0.3,0.6,0.6
				C35.6,82.5,35.3,82.7,35,82.7z"/>
		</g>
		<g>
			<path class="st1" d="M85.4,82.7H37c-0.4,0-0.6-0.3-0.6-0.6c0-0.4,0.3-0.6,0.6-0.6h48.3c0.3,0,0.5-0.2,0.5-0.5v-2.6
				c0-0.4,0.3-0.6,0.6-0.6c0.4,0,0.6,0.3,0.6,0.6v2.6C87.2,81.9,86.4,82.7,85.4,82.7z"/>
		</g>
		<g>
			<path class="st1" d="M86.5,74c-0.4,0-0.6-0.3-0.6-0.6v-26c0-0.4,0.3-0.6,0.6-0.6c0.4,0,0.6,0.3,0.6,0.6v26
				C87.2,73.7,86.9,74,86.5,74z"/>
		</g>
		<g>
			<path class="st1" d="M83.2,71.9h-6.6c-0.4,0-0.6-0.3-0.6-0.6c0-0.4,0.3-0.6,0.6-0.6h6V47.2c0-0.4,0.3-0.6,0.6-0.6
				s0.6,0.3,0.6,0.6v24C83.8,71.6,83.5,71.9,83.2,71.9z"/>
		</g>
		<g>
			<path class="st1" d="M83.2,42.5c-0.4,0-0.6-0.3-0.6-0.6v-3h-8.6c-0.4,0-0.6-0.3-0.6-0.6c0-0.4,0.3-0.6,0.6-0.6h9.3
				c0.4,0,0.6,0.3,0.6,0.6v3.6C83.8,42.2,83.5,42.5,83.2,42.5z"/>
		</g>
		<g>
			<path class="st1" d="M69.7,71.9H22.8c-0.4,0-0.6-0.3-0.6-0.6v-33c0-0.4,0.3-0.6,0.6-0.6H32c0.4,0,0.6,0.3,0.6,0.6
				c0,0.4-0.3,0.6-0.6,0.6h-8.6v31.7h46.3c0.4,0,0.6,0.3,0.6,0.6C70.4,71.6,70.1,71.9,69.7,71.9z"/>
		</g>
		<g>
			<path class="st1" d="M58.5,89.4h-11c-0.4,0-0.6-0.3-0.6-0.6v-6.6c0-0.4,0.3-0.6,0.6-0.6h11c0.4,0,0.6,0.3,0.6,0.6v6.6
				C59.1,89.1,58.9,89.4,58.5,89.4z M48.1,88.1h9.8v-5.4h-9.8V88.1z"/>
		</g>
		<g>
			<path class="st1" d="M64.4,92.3H41.5c-1,0-1.7-0.8-1.7-1.7v-0.7c0-1,0.8-1.7,1.7-1.7h22.9c1,0,1.7,0.8,1.7,1.7v0.7
				C66.2,91.5,65.4,92.3,64.4,92.3z M41.5,89.4c-0.2,0-0.5,0.2-0.5,0.5v0.7c0,0.2,0.2,0.5,0.5,0.5h22.9c0.2,0,0.5-0.2,0.5-0.5v-0.7
				c0-0.2-0.2-0.5-0.5-0.5H41.5z"/>
		</g>
		<g>
			<path class="st1" d="M53,79.1c-1.3,0-2.4-1.1-2.4-2.4c0-1.3,1.1-2.4,2.4-2.4c1.3,0,2.4,1.1,2.4,2.4C55.4,78,54.3,79.1,53,79.1z
				 M53,75.5c-0.6,0-1.1,0.5-1.1,1.2c0,0.6,0.5,1.2,1.1,1.2c0.6,0,1.1-0.5,1.1-1.2C54.1,76,53.6,75.5,53,75.5z"/>
		</g>
		<g>
			<path class="st1" d="M73.9,45.9c-0.4,0-0.6-0.3-0.6-0.6V26.4c0-0.4,0.3-0.6,0.6-0.6c0.4,0,0.6,0.3,0.6,0.6v18.9
				C74.6,45.6,74.3,45.9,73.9,45.9z"/>
		</g>
		<g>
			<path class="st1" d="M32,48.8c-0.4,0-0.6-0.3-0.6-0.6V32.4c0-0.4,0.3-0.6,0.6-0.6c0.4,0,0.6,0.3,0.6,0.6v15.7
				C32.7,48.5,32.4,48.8,32,48.8z"/>
		</g>
		<g>
			<path class="st1" d="M32,29.1c-0.4,0-0.6-0.3-0.6-0.6v-1.9c0-0.4,0.3-0.6,0.6-0.6c0.4,0,0.6,0.3,0.6,0.6v1.9
				C32.7,28.8,32.4,29.1,32,29.1z"/>
		</g>
		<g>
			<path class="st1" d="M32,71.8c-0.4,0-0.6-0.3-0.6-0.6V59.3c0-0.4,0.3-0.6,0.6-0.6c0.4,0,0.6,0.3,0.6,0.6v11.9
				C32.7,71.5,32.4,71.8,32,71.8z"/>
		</g>
		<g>
			<path class="st1" d="M73.9,69.5c-0.4,0-0.6-0.3-0.6-0.6V52c0-0.4,0.3-0.6,0.6-0.6c0.4,0,0.6,0.3,0.6,0.6v16.9
				C74.6,69.2,74.3,69.5,73.9,69.5z"/>
		</g>
		<g>
			<path class="st1" d="M32,27.2H21.5c-0.4,0-0.6-0.3-0.6-0.6c0-3.3,2.7-5.9,5.9-5.9c3.3,0,5.9,2.7,5.9,5.9
				C32.7,26.9,32.4,27.2,32,27.2z M22.2,25.9h9.2c-0.3-2.3-2.3-4-4.6-4C24.4,21.9,22.5,23.7,22.2,25.9z"/>
		</g>
		<g>
			<path class="st1" d="M73.9,27.2c-0.4,0-0.6-0.3-0.6-0.6c0-2.6-2.1-4.6-4.6-4.6H26.8c-0.4,0-0.6-0.3-0.6-0.6
				c0-0.4,0.3-0.6,0.6-0.6h41.9c3.3,0,5.9,2.7,5.9,5.9C74.6,26.9,74.3,27.2,73.9,27.2z"/>
		</g>
		<g>
			<path class="st1" d="M32,31.1c-0.4,0-0.6-0.3-0.6-0.6c0-0.4,0.3-0.7,0.6-0.7c0.4,0,0.6,0.3,0.6,0.6v0
				C32.7,30.8,32.4,31.1,32,31.1z"/>
		</g>
	</g>
	<g>
		<path class="st1" d="M106.3,40.9h-1.2c-0.7,0-1.3-0.6-1.3-1.3v-0.6l-0.4,0.4c-0.5,0.5-1.3,0.5-1.8,0l-0.9-0.9
			c-0.5-0.5-0.5-1.3,0-1.8l0.4-0.4h-0.6c-0.7,0-1.3-0.6-1.3-1.3v-1.2c0-0.7,0.6-1.3,1.3-1.3h0.6l-0.4-0.4c-0.5-0.5-0.5-1.3,0-1.8
			l0.9-0.9c0.5-0.5,1.3-0.5,1.8,0l0.4,0.4v-0.6c0-0.7,0.6-1.3,1.3-1.3h1.2c0.7,0,1.3,0.6,1.3,1.3V30l0.4-0.4c0.5-0.5,1.3-0.5,1.8,0
			l0.9,0.9c0.5,0.5,0.5,1.3,0,1.8l-0.4,0.4h0.6c0.7,0,1.3,0.6,1.3,1.3v1.2c0,0.7-0.6,1.3-1.3,1.3h-0.6l0.4,0.4
			c0.5,0.5,0.5,1.3,0,1.8l-0.9,0.9c-0.5,0.5-1.3,0.5-1.8,0l-0.4-0.4v0.6C107.6,40.4,107,40.9,106.3,40.9z M103.9,37.5
			c0.1,0,0.2,0,0.3,0.1c0.2,0.1,0.3,0.1,0.5,0.2c0.3,0.1,0.4,0.3,0.4,0.6v1.3l1.2,0l0-1.3c0-0.3,0.2-0.5,0.4-0.6
			c0.2-0.1,0.3-0.1,0.5-0.2c0.2-0.1,0.5-0.1,0.7,0.1l0.9,0.9l0.8-0.9l-0.9-0.9c-0.2-0.2-0.2-0.5-0.1-0.7c0.1-0.2,0.1-0.3,0.2-0.5
			c0.1-0.3,0.3-0.4,0.6-0.4h1.3l0-1.2h-1.3c-0.3,0-0.5-0.2-0.6-0.4c-0.1-0.2-0.1-0.3-0.2-0.5c-0.1-0.2-0.1-0.5,0.1-0.7l0.9-0.9
			l-0.9-0.8l-0.9,0.9c-0.2,0.2-0.5,0.2-0.7,0.1c-0.2-0.1-0.3-0.1-0.5-0.2c-0.3-0.1-0.4-0.3-0.4-0.6v-1.3l-1.2,0l0,1.3
			c0,0.3-0.2,0.5-0.4,0.6c-0.2,0.1-0.3,0.1-0.5,0.2c-0.2,0.1-0.5,0.1-0.7-0.1l-0.9-0.9l-0.8,0.9l0.9,0.9c0.2,0.2,0.2,0.5,0.1,0.7
			c-0.1,0.2-0.1,0.3-0.2,0.5c-0.1,0.3-0.3,0.4-0.6,0.4h-1.3l0,1.2l1.3,0c0.3,0,0.5,0.2,0.6,0.4c0.1,0.2,0.1,0.3,0.2,0.5
			c0.1,0.2,0.1,0.5-0.1,0.7l-0.9,0.9l0.9,0.8l0.9-0.9C103.6,37.5,103.8,37.5,103.9,37.5z M110.8,34L110.8,34L110.8,34z M105.7,36.9
			c-1.3,0-2.3-1-2.3-2.3c0-1.3,1-2.3,2.3-2.3c1.3,0,2.3,1,2.3,2.3C108,35.8,107,36.9,105.7,36.9z M105.7,33.5c-0.6,0-1,0.5-1,1
			c0,0.6,0.5,1,1,1c0.6,0,1-0.5,1-1C106.8,34,106.3,33.5,105.7,33.5z"/>
	</g>
	<g>
		<path class="st1" d="M74.7,92.3H35.2c-0.4,0-0.6-0.3-0.6-0.6c0-0.4,0.3-0.6,0.6-0.6h39.5c0.4,0,0.6,0.3,0.6,0.6
			C75.3,92,75.1,92.3,74.7,92.3z"/>
	</g>
	<g>
		<path class="st1" d="M33,92.3h-3.4c-0.4,0-0.6-0.3-0.6-0.6c0-0.4,0.3-0.6,0.6-0.6H33c0.4,0,0.6,0.3,0.6,0.6
			C33.7,92,33.4,92.3,33,92.3z"/>
	</g>
	<g>
		<path class="st1" d="M27.5,92.3h-1.5c-0.4,0-0.6-0.3-0.6-0.6c0-0.4,0.3-0.6,0.6-0.6h1.5c0.4,0,0.6,0.3,0.6,0.6
			C28.2,92,27.9,92.3,27.5,92.3z"/>
	</g>
	<g>
		<path class="st1" d="M78.8,92.3h-2.1c-0.4,0-0.6-0.3-0.6-0.6c0-0.4,0.3-0.6,0.6-0.6h2.1c0.4,0,0.6,0.3,0.6,0.6
			C79.5,92,79.2,92.3,78.8,92.3z"/>
	</g>
	<g>
		<path class="st1" d="M81.7,92.3h-0.9c-0.4,0-0.6-0.3-0.6-0.6c0-0.4,0.3-0.6,0.6-0.6h0.9c0.4,0,0.6,0.3,0.6,0.6
			C82.4,92,82.1,92.3,81.7,92.3z"/>
	</g>
	<g>
		<path class="st1" d="M84.1,92.3h-0.2c-0.4,0-0.6-0.3-0.6-0.6c0-0.4,0.3-0.6,0.6-0.6h0.2c0.4,0,0.6,0.3,0.6,0.6
			C84.7,92,84.4,92.3,84.1,92.3z"/>
	</g>
	<g>
		<path class="st1" d="M61.5,47.4c-0.2,0-0.3-0.1-0.4-0.2l-3.2-3.1c-0.1-0.1-0.2-0.3-0.2-0.5c0-0.2,0.1-0.3,0.2-0.5
			c1.2-1.3,1.9-3,1.9-4.7c0-3.7-3-6.8-6.8-6.8c-0.3,0-0.6,0-1,0.1c-0.3,0.1-0.7-0.2-0.7-0.5l-0.7-4.5c0-0.2,0-0.3,0.1-0.5
			c0.1-0.1,0.3-0.2,0.4-0.3c0.6-0.1,1.3-0.1,1.9-0.1c6.9,0,12.5,5.6,12.5,12.5c0,3.3-1.3,6.4-3.6,8.8C61.8,47.4,61.7,47.4,61.5,47.4
			z M59.2,43.6l2.3,2.3c1.8-2.1,2.8-4.7,2.8-7.4c0-6.2-5.1-11.3-11.3-11.3c-0.3,0-0.7,0-1.1,0l0.5,3.2c0.2,0,0.4,0,0.6,0
			c4.4,0,8,3.6,8,8C61,40.4,60.4,42.2,59.2,43.6z"/>
	</g>
	<g>
		<path class="st1" d="M53,51c-2.3,0-4.5-0.6-6.5-1.8c-0.3-0.2-0.4-0.6-0.2-0.9l2.3-3.9c0.1-0.1,0.2-0.3,0.4-0.3
			c0.2,0,0.3,0,0.5,0.1c1.1,0.6,2.3,1,3.5,1c1.1,0,2.1-0.2,3-0.7c0.2-0.1,0.3-0.1,0.5,0c0.2,0.1,0.3,0.2,0.4,0.3l2,4
			c0.2,0.3,0,0.7-0.3,0.9C56.9,50.6,55,51,53,51z M47.8,48.5c1.6,0.8,3.4,1.3,5.2,1.3c1.6,0,3.1-0.3,4.5-0.9L56,45.9
			c-2.1,0.9-4.6,0.8-6.6-0.2L47.8,48.5z"/>
	</g>
	<g>
		<path class="st1" d="M44.1,47c-0.2,0-0.4-0.1-0.5-0.2c-2-2.3-3.2-5.3-3.2-8.3c0-4.6,2.5-8.8,6.6-11c0.1-0.1,0.3-0.1,0.5-0.1
			c0.2,0,0.3,0.2,0.4,0.3l2.1,4c0.2,0.3,0.1,0.7-0.3,0.9c-2.2,1.2-3.5,3.5-3.5,5.9c0,1.7,0.6,3.2,1.7,4.5c0.1,0.1,0.2,0.3,0.2,0.5
			c0,0.2-0.1,0.3-0.2,0.4l-3.4,3C44.4,47,44.2,47,44.1,47z M47.1,28.9c-3.3,2-5.3,5.7-5.3,9.6c0,2.5,0.9,5,2.4,7l2.4-2.1
			c-1.1-1.4-1.6-3.1-1.6-4.8c0-2.7,1.4-5.3,3.7-6.7L47.1,28.9z"/>
	</g>
	<g>
		<path class="st1" d="M11.9,76c-2.5,0-4.5-2-4.5-4.5c0-2.5,2-4.5,4.5-4.5c2.5,0,4.5,2,4.5,4.5C16.4,74,14.4,76,11.9,76z M11.9,68.3
			c-1.8,0-3.3,1.5-3.3,3.3s1.5,3.3,3.3,3.3c1.8,0,3.3-1.5,3.3-3.3S13.6,68.3,11.9,68.3z"/>
	</g>
	<g>
		<path class="st1" d="M32,59.9c-3.4,0-6.2-2.8-6.2-6.2s2.8-6.2,6.2-6.2c3.4,0,6.2,2.8,6.2,6.2S35.5,59.9,32,59.9z M32,48.8
			c-2.7,0-4.9,2.2-4.9,4.9s2.2,4.9,4.9,4.9c2.7,0,4.9-2.2,4.9-4.9S34.8,48.8,32,48.8z"/>
	</g>
	<g>
		<path class="st1" d="M47.5,66c-1.9,0-3.5-1.6-3.5-3.5c0-1.9,1.6-3.5,3.5-3.5s3.5,1.6,3.5,3.5C51,64.4,49.4,66,47.5,66z M47.5,60.2
			c-1.2,0-2.2,1-2.2,2.2s1,2.2,2.2,2.2c1.2,0,2.2-1,2.2-2.2S48.7,60.2,47.5,60.2z"/>
	</g>
	<g>
		<path class="st1" d="M62,56.4c-1.5,0-2.7-1.2-2.7-2.7c0-1.5,1.2-2.7,2.7-2.7c1.5,0,2.7,1.2,2.7,2.7C64.7,55.2,63.5,56.4,62,56.4z
			 M62,52.3c-0.8,0-1.4,0.6-1.4,1.4c0,0.8,0.6,1.4,1.4,1.4c0.8,0,1.4-0.6,1.4-1.4C63.4,52.9,62.8,52.3,62,52.3z"/>
	</g>
	<g>
		<path class="st1" d="M49.9,61.6c-0.2,0-0.4-0.1-0.5-0.3c-0.2-0.3-0.1-0.7,0.2-0.9l10.3-6.2c0.3-0.2,0.7-0.1,0.9,0.2
			c0.2,0.3,0.1,0.7-0.2,0.9l-10.3,6.2C50.2,61.6,50.1,61.6,49.9,61.6z"/>
	</g>
	<g>
		<path class="st1" d="M45,61.7c-0.1,0-0.2,0-0.3-0.1L36.6,57c-0.3-0.2-0.4-0.6-0.2-0.9c0.2-0.3,0.6-0.4,0.9-0.2l8.1,4.6
			c0.3,0.2,0.4,0.6,0.2,0.9C45.4,61.6,45.2,61.7,45,61.7z"/>
	</g>
	<g>
		<path class="st1" d="M14.8,69.6c-0.2,0-0.4-0.1-0.5-0.2c-0.2-0.3-0.2-0.7,0.1-0.9l13.1-11.5c0.3-0.2,0.7-0.2,0.9,0.1
			c0.2,0.3,0.2,0.7-0.1,0.9L15.2,69.4C15.1,69.5,14.9,69.6,14.8,69.6z"/>
	</g>
	<g>
		<path class="st0" d="M13.8,71.5c0,1.1-0.9,2-2,2s-2-0.9-2-2c0-1.1,0.9-2,2-2S13.8,70.4,13.8,71.5z"/>
	</g>
	<g>
		<path class="st1" d="M3.5,62.7c-1.8,0-3.2-1.4-3.2-3.2c0-1.8,1.4-3.2,3.2-3.2c1.8,0,3.2,1.4,3.2,3.2C6.6,61.3,5.2,62.7,3.5,62.7z
			 M3.5,57.7c-1,0-1.9,0.8-1.9,1.9c0,1,0.8,1.9,1.9,1.9c1,0,1.9-0.8,1.9-1.9C5.4,58.5,4.5,57.7,3.5,57.7z"/>
	</g>
	<g>
		<path class="st0" d="M4.8,59.6c0,0.7-0.6,1.3-1.3,1.3c-0.7,0-1.3-0.6-1.3-1.3c0-0.7,0.6-1.3,1.3-1.3C4.2,58.3,4.8,58.9,4.8,59.6z"
			/>
	</g>
	<g>
		<ellipse transform="matrix(0.2298 -0.9732 0.9732 0.2298 -27.6002 72.5531)" class="st0" cx="32" cy="53.7" rx="3.4" ry="3.4"/>
	</g>
	<g>
		<path class="st0" d="M48.7,62.5c0,0.7-0.6,1.3-1.3,1.3c-0.7,0-1.3-0.6-1.3-1.3c0-0.7,0.6-1.3,1.3-1.3
			C48.2,61.2,48.7,61.8,48.7,62.5z"/>
	</g>
	<g>
		<circle class="st0" cx="62" cy="53.7" r="0.7"/>
	</g>
	<g>
		<path class="st1" d="M9.6,68.9c-0.2,0-0.4-0.1-0.5-0.3L4.4,62c-0.2-0.3-0.1-0.7,0.2-0.9c0.3-0.2,0.7-0.1,0.9,0.2l4.7,6.7
			c0.2,0.3,0.1,0.7-0.2,0.9C9.9,68.9,9.8,68.9,9.6,68.9z"/>
	</g>
	<g>
		<path class="st1" d="M95.1,63.4c0,0-0.1,0-0.1,0c-0.3-0.1-0.6-0.4-0.5-0.8c0.8-3.7-0.4-7.4-3.1-9.9c-0.3-0.2-0.3-0.6,0-0.9
			c0.2-0.3,0.6-0.3,0.9,0c3.1,2.9,4.4,7,3.5,11.1C95.7,63.1,95.4,63.4,95.1,63.4z"/>
	</g>
	<g>
		<path class="st1" d="M90.1,51.5c-0.1,0-0.2,0-0.3-0.1c-0.5-0.3-1.1-0.6-1.7-0.8c-0.3-0.1-0.5-0.5-0.4-0.8c0.1-0.3,0.5-0.5,0.8-0.4
			c0.7,0.3,1.3,0.6,1.9,0.9c0.3,0.2,0.4,0.6,0.2,0.9C90.5,51.4,90.3,51.5,90.1,51.5z"/>
	</g>
</g>
</svg>
