<?xml version="1.0" encoding="utf-8"?>
<!-- Generator: Adobe Illustrator 24.0.2, SVG Export Plug-In . SVG Version: 6.00 Build 0)  -->
<svg version="1.1" id="Layer_1" xmlns="http://www.w3.org/2000/svg" xmlns:xlink="http://www.w3.org/1999/xlink" x="0px" y="0px"
	 width="123px" height="123px" viewBox="0 0 123 123" style="enable-background:new 0 0 123 123;" xml:space="preserve">
<style type="text/css">
	.st0{fill:#fff;}
	.st1{fill:#DB352A;}
</style>
<g>
	<path class="st0" d="M17.1,67.4c0,0.4-0.3,0.6-0.6,0.6h-1.4c0,0,0,0,0,0v1.1c0,0.3-0.2,0.6-0.5,0.6c-0.7,0.2-1.3,0.4-1.9,0.8
		c-0.3,0.2-0.6,0.1-0.8-0.1l-0.8-0.8c0,0,0,0,0,0l-1.5,1.5c0,0,0,0,0,0c0,0,0,0,0,0l0.8,0.8c0.2,0.2,0.2,0.5,0.1,0.8
		c-0.3,0.6-0.6,1.2-0.8,1.9c-0.1,0.3-0.3,0.5-0.6,0.5H8c0,0,0,0,0,0v2.2c0,0,0,0,0,0h1.1c0.3,0,0.6,0.2,0.6,0.5
		c0.2,0.7,0.4,1.3,0.8,1.9c0.2,0.3,0.1,0.6-0.1,0.8l-0.8,0.8c0,0,0,0,0,0c0,0,0,0,0,0l1.5,1.5c0,0,0,0,0,0l0.8-0.8
		c0.2-0.2,0.5-0.2,0.8-0.1c0.6,0.3,1.2,0.6,1.9,0.8c0.3,0.1,0.5,0.3,0.5,0.6v1.1c0,0,0,0,0,0h1.4c0.4,0,0.6,0.3,0.6,0.6
		s-0.3,0.6-0.6,0.6h-1.4c-0.7,0-1.3-0.6-1.3-1.3v-0.6c-0.4-0.1-0.9-0.3-1.3-0.5l-0.4,0.4c-0.5,0.5-1.3,0.5-1.9,0l-1.5-1.5
		c-0.5-0.5-0.5-1.4,0-1.9L9.1,80c-0.2-0.4-0.4-0.8-0.5-1.3H8c-0.7,0-1.3-0.6-1.3-1.3v-2.2c0-0.7,0.6-1.3,1.3-1.3h0.6
		c0.1-0.4,0.3-0.9,0.5-1.3l-0.4-0.4c-0.2-0.2-0.4-0.6-0.4-0.9c0,0,0,0,0,0c0-0.4,0.1-0.7,0.4-0.9l1.5-1.5c0.5-0.5,1.3-0.5,1.9,0
		l0.4,0.4c0.4-0.2,0.8-0.4,1.3-0.5v-0.6c0-0.7,0.6-1.3,1.3-1.3h1.4C16.8,66.8,17.1,67.1,17.1,67.4z M16.8,73.8
		c0,0.4-0.3,0.6-0.6,0.6c-1.1,0-1.9,0.9-1.9,1.9c0,1.1,0.9,1.9,1.9,1.9c0.4,0,0.6,0.3,0.6,0.6s-0.3,0.6-0.6,0.6
		c-1.8,0-3.2-1.4-3.2-3.2c0-1.8,1.4-3.2,3.2-3.2C16.6,73.1,16.8,73.4,16.8,73.8z"/>
	<g>
		<path class="st1" d="M71,69.8h3.9c-1-2.1-3.1-3.5-5.5-3.5c-2.4,0-4.5,1.4-5.5,3.5H49.2c-1-2.1-3.1-3.5-5.5-3.5
			c-2.4,0-4.5,1.4-5.5,3.5h3.9V75h-3.9c1,2.1,3.1,3.5,5.5,3.5c2.4,0,4.5-1.4,5.5-3.5h14.7c1,2.1,3.1,3.5,5.5,3.5
			c2.4,0,4.5-1.4,5.5-3.5H71V69.8z"/>
	</g>
	<path class="st0" d="M43.7,79.1c2.3,0,4.4-1.2,5.7-3.1l0.2-0.4h13.9l0.2,0.4c1.2,1.9,3.4,3.1,5.7,3.1c2.6,0,5-1.5,6.1-3.9
		c0.1-0.2,0.1-0.4,0-0.6c-0.1-0.2-0.3-0.3-0.6-0.3h-3.3v-3.8h3.3c0.2,0,0.4-0.1,0.6-0.3c0.1-0.2,0.1-0.4,0-0.6
		c-1.1-2.3-3.5-3.9-6.1-3.9c-2.3,0-4.4,1.2-5.7,3.1l-0.2,0.4H49.6l-0.2-0.4c-1.2-1.9-3.4-3.1-5.7-3.1c-2.6,0-5,1.5-6.1,3.9
		c-0.1,0.2-0.1,0.4,0,0.6c0.1,0.2,0.3,0.3,0.6,0.3h3.3v3.8h-3.3c-0.2,0-0.4,0.1-0.6,0.3c-0.1,0.2-0.1,0.4,0,0.6
		C38.8,77.6,41.1,79.1,43.7,79.1z M42.2,75.6c0.4,0,0.7-0.3,0.7-0.7v-5.1c0-0.4-0.3-0.7-0.7-0.7h-3.9l3.1-1.6
		c0.8-0.4,1.6-0.6,2.4-0.6c2.1,0,4,1.2,4.9,3.1c0.1,0.2,0.3,0.4,0.6,0.4h14.7c0.3,0,0.5-0.1,0.6-0.4c0.9-1.9,2.8-3.1,4.9-3.1
		c0.8,0,1.7,0.2,2.4,0.6l1.8,1.6H71c-0.4,0-0.7,0.3-0.7,0.7V75c0,0.4,0.3,0.7,0.7,0.7h2.9l-2,1.6c-0.8,0.4-1.6,0.6-2.4,0.6
		c-2.1,0-4-1.2-4.9-3.1c-0.1-0.2-0.3-0.4-0.6-0.4H49.2c-0.3,0-0.5,0.1-0.6,0.4c-0.9,1.9-2.8,3.1-4.9,3.1c-0.8,0-1.7-0.2-2.4-0.6
		l-3.1-1.6H42.2z"/>
	<path class="st0" d="M54.2,74.3c-0.4,0-0.7,0.3-0.7,0.7v10.9c0,0.4,0.3,0.7,0.7,0.7h4.8c0.4,0,0.7-0.3,0.7-0.7V75
		c0-0.4-0.3-0.7-0.7-0.7s-0.7,0.3-0.7,0.7v10.2h-3.4V75C54.8,74.6,54.5,74.3,54.2,74.3z"/>
	<path class="st0" d="M58.9,70.5c0.4,0,0.7-0.3,0.7-0.7v-9.1h6.9c0.2,0,0.5-0.1,0.6-0.3s0.1-0.5,0-0.7l-4.2-7
		c-0.1-0.2-0.3-0.3-0.6-0.3H48.3c-0.4,0-0.7,0.3-0.7,0.7v7c0,0.4,0.3,0.7,0.7,0.7h5.2v9.1c0,0.4,0.3,0.7,0.7,0.7s0.7-0.3,0.7-0.7
		v-9.1h3.4v9.1C58.3,70.2,58.6,70.5,58.9,70.5z M49,59.4v-5.7h12.9l3.4,5.7H49z"/>
	<g>
		<path class="st1" d="M88.4,27.7v-4.5c0-0.8-0.6-1.4-1.4-1.4H24.9c-0.8,0-1.4,0.6-1.4,1.4v4.5H88.4z"/>
	</g>
	<g>
		<path class="st0" d="M87.1,96.1H24.9c-1.1,0-2-0.9-2-2v-3.7c0-0.4,0.3-0.6,0.6-0.6c0.4,0,0.6,0.3,0.6,0.6v3.7
			c0,0.4,0.3,0.7,0.7,0.7h62.2c0.4,0,0.7-0.3,0.7-0.7v-6.2c0-0.4,0.3-0.6,0.6-0.6c0.4,0,0.6,0.3,0.6,0.6v6.2
			C89.1,95.2,88.2,96.1,87.1,96.1z"/>
	</g>
	<g>
		<path class="st0" d="M23.5,87.7c-0.4,0-0.6-0.3-0.6-0.6v-7.3c0-0.4,0.3-0.6,0.6-0.6c0.4,0,0.6,0.3,0.6,0.6v7.3
			C24.2,87.5,23.9,87.7,23.5,87.7z"/>
	</g>
	<g>
		<path class="st0" d="M23.5,77.4c-0.4,0-0.6-0.3-0.6-0.6V73c0-0.4,0.3-0.6,0.6-0.6c0.4,0,0.6,0.3,0.6,0.6v3.8
			C24.2,77.1,23.9,77.4,23.5,77.4z"/>
	</g>
	<g>
		<path class="st0" d="M23.5,70.8c-0.4,0-0.6-0.3-0.6-0.6v-1.9c0-0.4,0.3-0.6,0.6-0.6c0.4,0,0.6,0.3,0.6,0.6v1.9
			C24.2,70.5,23.9,70.8,23.5,70.8z"/>
	</g>
	<g>
		<path class="st0" d="M88.4,79.7c-0.4,0-0.6-0.3-0.6-0.6V23.2c0-0.4-0.3-0.7-0.7-0.7H24.9c-0.4,0-0.7,0.3-0.7,0.7v42.2
			c0,0.4-0.3,0.6-0.6,0.6c-0.4,0-0.6-0.3-0.6-0.6V23.2c0-1.1,0.9-2,2-2h62.2c1.1,0,2,0.9,2,2V79C89.1,79.4,88.8,79.7,88.4,79.7z"/>
	</g>
	<g>
		<path class="st0" d="M58.2,101.8h-40c-1.1,0-2-0.9-2-2V31.3c0-1.1,0.9-2,2-2h5.2c0.4,0,0.6,0.3,0.6,0.6s-0.3,0.6-0.6,0.6h-5.2
			c-0.4,0-0.7,0.3-0.7,0.7v68.6c0,0.4,0.3,0.7,0.7,0.7h40c0.4,0,0.6,0.3,0.6,0.6C58.9,101.5,58.6,101.8,58.2,101.8z"/>
	</g>
	<g>
		<path class="st0" d="M93.6,98.9H81.8c-0.4,0-0.6-0.3-0.6-0.6c0-0.4,0.3-0.6,0.6-0.6h11.8c0.4,0,0.7-0.3,0.7-0.7V25.9
			c0-0.4-0.3-0.7-0.7-0.7h-4.9c-0.4,0-0.6-0.3-0.6-0.6c0-0.4,0.3-0.6,0.6-0.6h4.9c1.1,0,1.9,0.9,1.9,2v70.9
			C95.5,98,94.7,98.9,93.6,98.9z"/>
	</g>
	<g>
		<path class="st0" d="M62.6,101.8h-2.2c-0.4,0-0.6-0.3-0.6-0.6c0-0.4,0.3-0.6,0.6-0.6h2.2c0.4,0,0.6,0.3,0.6,0.6
			C63.2,101.5,63,101.8,62.6,101.8z"/>
	</g>
	<g>
		<path class="st0" d="M69.5,101.8h-5c-0.4,0-0.6-0.3-0.6-0.6c0-0.4,0.3-0.6,0.6-0.6h5c0.4,0,0.6,0.3,0.6,0.6
			C70.2,101.5,69.9,101.8,69.5,101.8z"/>
	</g>
	<g>
		<path class="st0" d="M80.4,101.8h-8.7c-0.4,0-0.6-0.3-0.6-0.6c0-0.4,0.3-0.6,0.6-0.6h8.7c0.4,0,0.7-0.3,0.7-0.7v-4
			c0-0.4,0.3-0.6,0.6-0.6c0.4,0,0.6,0.3,0.6,0.6v4C82.4,100.9,81.5,101.8,80.4,101.8z"/>
	</g>
	<g>
		<path class="st0" d="M88.4,28.4H23.5c-0.4,0-0.6-0.3-0.6-0.6s0.3-0.6,0.6-0.6h64.9c0.4,0,0.6,0.3,0.6,0.6S88.8,28.4,88.4,28.4z"/>
	</g>
	<g>
		<g>
			<path class="st0" d="M28.6,26.6c-1,0-1.7-0.8-1.7-1.7c0-1,0.8-1.7,1.7-1.7c1,0,1.7,0.8,1.7,1.7C30.3,25.8,29.6,26.6,28.6,26.6z
				 M28.6,24.4c-0.2,0-0.4,0.2-0.4,0.4c0,0.2,0.2,0.4,0.4,0.4c0.2,0,0.4-0.2,0.4-0.4C29,24.6,28.8,24.4,28.6,24.4z"/>
		</g>
		<g>
			<path class="st0" d="M33.9,26.6c-0.5,0-0.9-0.2-1.2-0.5c-0.7-0.7-0.7-1.8,0-2.4c0.7-0.7,1.8-0.7,2.4,0c0.7,0.7,0.7,1.8,0,2.4
				C34.8,26.4,34.4,26.6,33.9,26.6z M33.9,24.4c-0.1,0-0.2,0-0.3,0.1c-0.2,0.2-0.2,0.5,0,0.6c0.2,0.2,0.5,0.2,0.6,0
				c0.2-0.2,0.2-0.5,0-0.6C34.1,24.4,34,24.4,33.9,24.4z"/>
		</g>
		<g>
			<path class="st0" d="M39.2,26.6c-0.4,0-0.9-0.2-1.2-0.5c-0.7-0.7-0.7-1.8,0-2.4c0.7-0.7,1.8-0.7,2.4,0c0.7,0.7,0.7,1.8,0,2.4
				C40.1,26.4,39.6,26.6,39.2,26.6z M39.2,24.4c-0.1,0-0.2,0-0.3,0.1c-0.2,0.2-0.2,0.5,0,0.6c0.2,0.2,0.5,0.2,0.6,0
				c0.2-0.2,0.2-0.5,0-0.6C39.4,24.4,39.3,24.4,39.2,24.4z"/>
		</g>
	</g>
	<g>
		<path class="st0" d="M66.7,38.8H45.3c-1.1,0-2-0.9-2-2v-3.7c0-1.1,0.9-2,2-2h21.5c1.1,0,2,0.9,2,2v3.7
			C68.7,37.9,67.8,38.8,66.7,38.8z M45.3,32.4c-0.4,0-0.7,0.3-0.7,0.7v3.7c0,0.4,0.3,0.7,0.7,0.7h21.5c0.4,0,0.7-0.3,0.7-0.7v-3.7
			c0-0.4-0.3-0.7-0.7-0.7H45.3z"/>
	</g>
	<g>
		<g>
			<path class="st0" d="M39,46.1h-9.9c-0.7,0-1.3-0.6-1.3-1.3v-1.9c0-0.7,0.6-1.3,1.3-1.3H39c0.7,0,1.3,0.6,1.3,1.3v1.9
				C40.2,45.5,39.7,46.1,39,46.1z M38.9,42.9l-9.8,0l0,1.9l9.8,0L38.9,42.9z M39,44.8L39,44.8L39,44.8z"/>
		</g>
		<g>
			<path class="st0" d="M53.6,46.1h-9.9c-0.7,0-1.3-0.6-1.3-1.3v-1.9c0-0.7,0.6-1.3,1.3-1.3h9.9c0.7,0,1.3,0.6,1.3,1.3v1.9
				C54.9,45.5,54.3,46.1,53.6,46.1z M53.6,42.9l-9.8,0l0,1.9l9.8,0L53.6,42.9z M53.6,44.8L53.6,44.8L53.6,44.8z"/>
		</g>
		<g>
			<path class="st0" d="M68.2,46.1h-9.9c-0.7,0-1.3-0.6-1.3-1.3v-1.9c0-0.7,0.6-1.3,1.3-1.3h9.9c0.7,0,1.3,0.6,1.3,1.3v1.9
				C69.5,45.5,68.9,46.1,68.2,46.1z M68.2,42.9l-9.8,0l0,1.9l9.8,0L68.2,42.9z"/>
		</g>
		<g>
			<path class="st0" d="M82.9,46.1H73c-0.7,0-1.3-0.6-1.3-1.3v-1.9c0-0.7,0.6-1.3,1.3-1.3h9.9c0.7,0,1.3,0.6,1.3,1.3v1.9
				C84.2,45.5,83.6,46.1,82.9,46.1z M82.9,42.9l-9.8,0l0,1.9l9.8,0L82.9,42.9z M82.9,44.8L82.9,44.8L82.9,44.8z"/>
		</g>
	</g>
	<g>
		<path class="st0" d="M23.5,37h-6.7c-0.4,0-0.6-0.3-0.6-0.6c0-0.4,0.3-0.6,0.6-0.6h6.7c0.4,0,0.6,0.3,0.6,0.6
			C24.2,36.7,23.9,37,23.5,37z"/>
	</g>
	<g>
		<path class="st0" d="M94.8,31.2h-5.9c-0.4,0-0.6-0.3-0.6-0.6c0-0.4,0.3-0.6,0.6-0.6h5.9c0.4,0,0.6,0.3,0.6,0.6
			C95.4,30.9,95.2,31.2,94.8,31.2z"/>
	</g>
	<g>
		<path class="st0" d="M20.1,35c-1,0-1.8-0.8-1.8-1.8c0-1,0.8-1.8,1.8-1.8s1.8,0.8,1.8,1.8C21.9,34.2,21.1,35,20.1,35z M20.1,32.7
			c-0.3,0-0.5,0.2-0.5,0.5s0.2,0.5,0.5,0.5s0.5-0.2,0.5-0.5S20.4,32.7,20.1,32.7z"/>
	</g>
	<g>
		<path class="st0" d="M88.4,83.3c-0.4,0-0.6-0.3-0.6-0.6V81c0-0.4,0.3-0.6,0.6-0.6c0.4,0,0.6,0.3,0.6,0.6v1.7
			C89.1,83,88.8,83.3,88.4,83.3z"/>
	</g>
	<g>
		<path class="st0" d="M88.4,86.3c-0.4,0-0.6-0.3-0.6-0.6v-0.8c0-0.4,0.3-0.6,0.6-0.6c0.4,0,0.6,0.3,0.6,0.6v0.8
			C89.1,86,88.8,86.3,88.4,86.3z"/>
	</g>
	<g>
		<path class="st0" d="M108.2,60.1c2-4.5,0-9.7-4.5-11.7c-2.7-1.2-5.8-1-8.3,0.6v1.5c0,0,0.1,0,0.1-0.1c2.2-1.7,5.2-2,7.7-0.9
			c3.8,1.7,5.5,6.2,3.8,10.1c-1.7,3.8-6.2,5.5-10.1,3.8c-0.6-0.3-1.1-0.6-1.6-1V64c0.3,0.2,0.7,0.4,1.1,0.6
			C101,66.6,106.2,64.6,108.2,60.1z"/>
		<path class="st0" d="M116.2,53.8c0.2-0.4,0.2-0.9,0-1.4l-1.4-3.6c-0.4-0.9-1.4-1.4-2.4-1.1l-1.4,0.5c-0.6-0.8-1.3-1.6-2.1-2.3
			l0.6-1.3c0.4-0.9,0-2-0.9-2.4l-3.5-1.6c-0.9-0.4-2,0-2.4,0.9l-0.6,1.3c-1-0.1-2.1-0.2-3.1-0.1l-0.5-1.4c-0.4-0.9-1.4-1.4-2.4-1.1
			l-0.6,0.2V42l1.1-0.4c0.3-0.1,0.6,0,0.7,0.3l0.7,1.8c0.1,0.3,0.4,0.4,0.7,0.4c1.2-0.2,2.5-0.1,3.7,0.1c0.3,0.1,0.6-0.1,0.7-0.4
			l0.8-1.8c0.1-0.3,0.5-0.4,0.7-0.3l3.5,1.6c0.3,0.1,0.4,0.5,0.3,0.7l-0.8,1.8c-0.1,0.3,0,0.6,0.2,0.8c1,0.8,1.8,1.7,2.6,2.7
			c0.2,0.2,0.5,0.3,0.8,0.2l1.8-0.7c0.3-0.1,0.6,0,0.7,0.3l1.4,3.6c0.1,0.1,0,0.3,0,0.4c-0.1,0.1-0.2,0.2-0.3,0.3l-1.8,0.7
			c-0.3,0.1-0.4,0.4-0.4,0.7c0.2,1.2,0.1,2.5-0.1,3.7c-0.1,0.3,0.1,0.6,0.4,0.7l1.8,0.8c0.3,0.1,0.4,0.5,0.3,0.7l-1.6,3.5
			c-0.1,0.3-0.5,0.4-0.7,0.3l-1.8-0.8c-0.3-0.1-0.6,0-0.8,0.2c-0.8,1-1.7,1.8-2.7,2.6c-0.2,0.2-0.3,0.5-0.2,0.8l0.7,1.8
			c0.1,0.1,0,0.3,0,0.4c-0.1,0.1-0.2,0.2-0.3,0.3l-3.6,1.4c-0.3,0.1-0.6,0-0.7-0.3l-0.7-1.8c-0.1-0.3-0.4-0.4-0.7-0.4
			c-1.2,0.2-2.5,0.1-3.7-0.1c-0.3-0.1-0.6,0.1-0.7,0.4l-0.8,1.8c-0.1,0.3-0.5,0.4-0.7,0.3l-0.2-0.1v1.4c0.9,0.2,1.8-0.2,2.1-1
			l0.6-1.3c1,0.1,2.1,0.2,3.1,0.1l0.5,1.4c0.4,0.9,1.4,1.4,2.4,1.1l3.6-1.4c0.5-0.2,0.8-0.5,1-1c0.2-0.4,0.2-0.9,0-1.4l-0.5-1.4
			c0.8-0.6,1.6-1.3,2.3-2.1l1.3,0.6c0.9,0.4,2,0,2.4-0.9l1.6-3.5c0.4-0.9,0-2-0.9-2.4l-1.3-0.6c0.1-1,0.2-2.1,0.1-3.1l1.4-0.5
			C115.6,54.6,116,54.3,116.2,53.8z"/>
	</g>
</g>
</svg>
