<?xml version="1.0" encoding="utf-8"?>
<!-- Generator: Adobe Illustrator 24.0.2, SVG Export Plug-In . SVG Version: 6.00 Build 0)  -->
<svg version="1.1" id="Layer_1" xmlns="http://www.w3.org/2000/svg" xmlns:xlink="http://www.w3.org/1999/xlink" x="0px" y="0px"
	 width="123px" height="123px" viewBox="0 0 123 123" style="enable-background:new 0 0 123 123;" xml:space="preserve">
<style type="text/css">
	.st0{fill:#DB352A;}
	.st1{fill:#fff;}
</style>
<g>
	<g>
		<path class="st0" d="M44.9,88.1V89c0,0.9,0.8,1.7,1.7,1.7H74c0.9,0,1.7-0.8,1.7-1.7v-0.9H44.9z"/>
	</g>
	<g>
		<path class="st1" d="M83.6,88.5H23.2c-1.2,0-2.2-1-2.2-2.2V72.2c0-0.4,0.3-0.6,0.6-0.6c0.4,0,0.6,0.3,0.6,0.6v14.2
			c0,0.5,0.4,0.9,0.9,0.9h60.4c0.4,0,0.6,0.3,0.6,0.6C84.2,88.2,83.9,88.5,83.6,88.5z"/>
	</g>
	<g>
		<path class="st1" d="M99,69.1c-0.4,0-0.6-0.3-0.6-0.6V37.3c0-0.5-0.4-0.9-0.9-0.9h-3.6c-0.4,0-0.6-0.3-0.6-0.6
			c0-0.4,0.3-0.6,0.6-0.6h3.6c1.2,0,2.2,1,2.2,2.2v31.2C99.6,68.9,99.3,69.1,99,69.1z"/>
	</g>
	<g>
		<path class="st1" d="M91.5,36.5H85c-0.4,0-0.6-0.3-0.6-0.6c0-0.4,0.3-0.6,0.6-0.6h6.6c0.4,0,0.6,0.3,0.6,0.6
			C92.2,36.2,91.9,36.5,91.5,36.5z"/>
	</g>
	<g>
		<path class="st1" d="M82.7,36.5h-2.1c-0.4,0-0.6-0.3-0.6-0.6c0-0.4,0.3-0.6,0.6-0.6h2.1c0.4,0,0.6,0.3,0.6,0.6
			C83.4,36.2,83.1,36.5,82.7,36.5z"/>
	</g>
	<g>
		<path class="st1" d="M78.3,36.5H38.2c-0.4,0-0.6-0.3-0.6-0.6c0-0.4,0.3-0.6,0.6-0.6h40.1c0.4,0,0.6,0.3,0.6,0.6
			C79,36.2,78.7,36.5,78.3,36.5z"/>
	</g>
	<g>
		<path class="st1" d="M21.6,94.2H18c-1.1,0-1.9-0.9-1.9-1.9v-3.1c0-1.1,0.9-1.9,1.9-1.9h65.5c0.4,0,0.6,0.3,0.6,0.6
			c0,0.4-0.3,0.6-0.6,0.6H18c-0.4,0-0.7,0.3-0.7,0.7v3.1c0,0.4,0.3,0.7,0.7,0.7h3.6c0.4,0,0.6,0.3,0.6,0.6
			C22.3,93.9,22,94.2,21.6,94.2z"/>
	</g>
	<g>
		<path class="st1" d="M25.8,94.2H24c-0.4,0-0.6-0.3-0.6-0.6c0-0.4,0.3-0.6,0.6-0.6h1.8c0.4,0,0.6,0.3,0.6,0.6
			C26.4,93.9,26.1,94.2,25.8,94.2z"/>
	</g>
	<g>
		<path class="st1" d="M32.7,94.2h-4.7c-0.4,0-0.6-0.3-0.6-0.6c0-0.4,0.3-0.6,0.6-0.6h4.7c0.4,0,0.6,0.3,0.6,0.6
			C33.4,93.9,33.1,94.2,32.7,94.2z"/>
	</g>
	<g>
		<path class="st1" d="M83.5,94.2H35c-0.4,0-0.6-0.3-0.6-0.6c0-0.4,0.3-0.6,0.6-0.6h48.5c0.4,0,0.6,0.3,0.6,0.6
			C84.2,93.9,83.9,94.2,83.5,94.2z"/>
	</g>
	<g>
		<path class="st1" d="M74,91.4H46.6c-1.3,0-2.4-1.1-2.4-2.4v-0.9c0-0.4,0.3-0.6,0.6-0.6c0.4,0,0.6,0.3,0.6,0.6V89
			c0,0.6,0.5,1.1,1.1,1.1H74c0.6,0,1.1-0.5,1.1-1.1v-0.9c0-0.4,0.3-0.6,0.6-0.6s0.6,0.3,0.6,0.6V89C76.4,90.3,75.3,91.4,74,91.4z"/>
	</g>
	<g>
		<path class="st1" d="M83.6,84.4H26c-0.4,0-0.6-0.3-0.6-0.6V72.3c0-0.4,0.3-0.6,0.6-0.6c0.4,0,0.6,0.3,0.6,0.6v10.9h57
			c0.4,0,0.6,0.3,0.6,0.6S84,84.4,83.6,84.4z"/>
	</g>
	<g>
		<path class="st1" d="M94.7,69.1c-0.4,0-0.6-0.3-0.6-0.6V41.1H38.1c-0.4,0-0.6-0.3-0.6-0.6c0-0.4,0.3-0.6,0.6-0.6h56.6
			c0.4,0,0.6,0.3,0.6,0.6v28.1C95.3,68.8,95,69.1,94.7,69.1z"/>
	</g>
	<g>
		<path class="st0" d="M92.5,41.9H38c0,0.1,0,0.1,0,0.2v2.7h54.5c0.4,0,0.7-0.3,0.7-0.7v-1.5C93.2,42.2,92.9,41.9,92.5,41.9z"/>
	</g>
	<g>
		<g>
			<path class="st1" d="M60.7,37.5h-3.2c-0.4,0-0.6,0.3-0.6,0.6s0.3,0.6,0.6,0.6h3.2c0.4,0,0.6-0.3,0.6-0.6S61,37.5,60.7,37.5z"/>
		</g>
		<g>
			<path class="st1" d="M63.2,37.5c-0.4,0-0.6,0.3-0.6,0.6s0.3,0.6,0.6,0.6c0.4,0,0.6-0.3,0.6-0.6S63.6,37.5,63.2,37.5z"/>
		</g>
	</g>
	<g>
		<path class="st1" d="M79.7,74H41c-0.4,0-0.6-0.3-0.6-0.6V52.6c0-1.1,0.9-1.9,1.9-1.9h36.1c1.1,0,1.9,0.9,1.9,1.9v20.7
			C80.3,73.7,80,74,79.7,74z M41.6,72.7H79V52.6c0-0.4-0.3-0.7-0.7-0.7H42.3c-0.4,0-0.7,0.3-0.7,0.7V72.7z"/>
	</g>
	<g>
		<path class="st1" d="M78.3,79.1H42.3c-1.1,0-1.9-0.9-1.9-1.9v-1.7c0-0.4,0.3-0.6,0.6-0.6h38.7c0.4,0,0.6,0.3,0.6,0.6v1.7
			C80.3,78.2,79.4,79.1,78.3,79.1z M41.6,76.1v1c0,0.4,0.3,0.7,0.7,0.7h36.1c0.4,0,0.7-0.3,0.7-0.7v-1H41.6z"/>
	</g>
	<g>
		<path class="st0" d="M100.4,68.5H86c-1.3,0-2.4,1.1-2.4,2.4v25.8c0,1.3,1.1,2.4,2.4,2.4h14.4c1.3,0,2.4-1.1,2.4-2.4V70.9
			C102.8,69.6,101.7,68.5,100.4,68.5z M99.6,92.6H86.8V72h12.8V92.6z"/>
	</g>
	<g>
		<path class="st1" d="M100.4,99.7H86c-1.7,0-3-1.3-3-3V70.9c0-1.7,1.3-3,3-3h14.4c1.7,0,3,1.3,3,3v25.8
			C103.4,98.3,102,99.7,100.4,99.7z M86,69.2c-0.9,0-1.7,0.8-1.7,1.7v25.8c0,0.9,0.8,1.7,1.7,1.7h14.4c0.9,0,1.7-0.8,1.7-1.7V70.9
			c0-0.9-0.8-1.7-1.7-1.7H86z"/>
	</g>
	<g>
		<path class="st1" d="M99.6,93.2H86.8c-0.4,0-0.6-0.3-0.6-0.6V72c0-0.4,0.3-0.6,0.6-0.6h12.8c0.4,0,0.6,0.3,0.6,0.6v20.6
			C100.2,93,100,93.2,99.6,93.2z M87.4,92H99V72.6H87.4V92z"/>
	</g>
	<g>
		<path class="st1" d="M94.8,96.2h-3.2c-0.4,0-0.6-0.3-0.6-0.6c0-0.4,0.3-0.6,0.6-0.6h3.2c0.4,0,0.6,0.3,0.6,0.6
			C95.4,95.9,95.1,96.2,94.8,96.2z"/>
	</g>
	<g>
		<path class="st0" d="M97.8,75.5h-9.2c-0.2,0-0.4-0.2-0.4-0.4v-1.2c0-0.2,0.2-0.4,0.4-0.4h9.2c0.2,0,0.4,0.2,0.4,0.4v1.2
			C98.2,75.3,98,75.5,97.8,75.5z"/>
	</g>
	<g>
		<rect x="8.8" y="34.2" class="st0" width="25.6" height="6.1"/>
	</g>
	<g>
		<path class="st1" d="M34.5,40.9H8.8c-0.4,0-0.6-0.3-0.6-0.6v-6.1c0-0.4,0.3-0.6,0.6-0.6h25.6c0.4,0,0.6,0.3,0.6,0.6v6.1
			C35.1,40.7,34.8,40.9,34.5,40.9z M9.5,39.7h24.4v-4.9H9.5V39.7z"/>
	</g>
	<g>
		<path class="st1" d="M5.3,57.3c-0.4,0-0.6-0.3-0.6-0.6V32c0-1.2,0.9-2.1,2.1-2.1h29.8c1.2,0,2.1,0.9,2.1,2.1v15
			c0,0.4-0.3,0.6-0.6,0.6c-0.4,0-0.6-0.3-0.6-0.6V32c0-0.4-0.4-0.8-0.8-0.8H6.7c-0.4,0-0.8,0.4-0.8,0.8v24.7
			C5.9,57,5.6,57.3,5.3,57.3z"/>
	</g>
	<g>
		<path class="st1" d="M5.3,61.3c-0.4,0-0.6-0.3-0.6-0.6V59c0-0.4,0.3-0.6,0.6-0.6s0.6,0.3,0.6,0.6v1.6C5.9,61,5.6,61.3,5.3,61.3z"
			/>
	</g>
	<g>
		<path class="st1" d="M5.3,67c-0.4,0-0.6-0.3-0.6-0.6v-3.4c0-0.4,0.3-0.6,0.6-0.6s0.6,0.3,0.6,0.6v3.4C5.9,66.7,5.6,67,5.3,67z"/>
	</g>
	<g>
		<path class="st1" d="M36.6,72.8H6.7c-1.2,0-2.1-0.9-2.1-2.1v-2.1c0-0.4,0.3-0.6,0.6-0.6s0.6,0.3,0.6,0.6v2.1
			c0,0.4,0.4,0.8,0.8,0.8h29.8c0.4,0,0.8-0.4,0.8-0.8V47c0-0.4,0.3-0.6,0.6-0.6c0.4,0,0.6,0.3,0.6,0.6v23.7
			C38.6,71.8,37.7,72.8,36.6,72.8z"/>
	</g>
	<g>
		<path class="st1" d="M34.5,66.3H8.8c-0.4,0-0.6-0.3-0.6-0.6V34.2c0-0.4,0.3-0.6,0.6-0.6h25.6c0.4,0,0.6,0.3,0.6,0.6v31.5
			C35.1,66,34.8,66.3,34.5,66.3z M9.5,65h24.4V34.8H9.5V65z"/>
	</g>
	<g>
		<path class="st1" d="M21.6,70.9c-1.1,0-2-0.9-2-2c0-1.1,0.9-2,2-2c1.1,0,2,0.9,2,2C23.6,70,22.7,70.9,21.6,70.9z M21.6,68.2
			c-0.4,0-0.7,0.3-0.7,0.7c0,0.4,0.3,0.7,0.7,0.7c0.4,0,0.7-0.3,0.7-0.7C22.4,68.5,22,68.2,21.6,68.2z"/>
	</g>
	<g>
		<path class="st1" d="M29,48.6H14.3c-0.7,0-1.2-0.5-1.2-1.2v-3.7c0-0.7,0.5-1.2,1.2-1.2H29c0.7,0,1.2,0.5,1.2,1.2v3.7
			C30.2,48.1,29.6,48.6,29,48.6z M14.4,47.3h14.5v-3.6H14.4V47.3z"/>
	</g>
	<g>
		<path class="st1" d="M29,56.3H14.3c-0.7,0-1.2-0.5-1.2-1.2v-3.7c0-0.7,0.5-1.2,1.2-1.2H29c0.7,0,1.2,0.5,1.2,1.2V55
			C30.2,55.7,29.6,56.3,29,56.3z M14.4,55h14.5v-3.6H14.4V55z"/>
	</g>
	<g>
		<polygon class="st0" points="57.1,58.3 66,62.8 57.1,67.2 		"/>
	</g>
	<path class="st1" d="M103.8,56.3h-4.6c-0.4,0-0.6-0.3-0.6-0.6c0-0.4,0.3-0.6,0.6-0.6h4.6c0.3,0,0.6-0.3,0.6-0.6v-2
		c0-0.3,0.2-0.6,0.5-0.6c1.2-0.3,2.4-0.8,3.4-1.4c0.3-0.2,0.6-0.1,0.8,0.1l1.4,1.4c0.2,0.2,0.6,0.2,0.8,0l2.7-2.7
		c0.1-0.1,0.2-0.2,0.2-0.4c0-0.2-0.1-0.3-0.2-0.4l-1.4-1.4c-0.2-0.2-0.2-0.5-0.1-0.8c0.6-1.1,1.1-2.2,1.4-3.4
		c0.1-0.3,0.3-0.5,0.6-0.5h2c0.3,0,0.6-0.3,0.6-0.6v-3.9c0-0.3-0.3-0.6-0.6-0.6h-2c-0.3,0-0.6-0.2-0.6-0.5c-0.3-1.2-0.8-2.4-1.4-3.4
		c-0.2-0.3-0.1-0.6,0.1-0.8l1.4-1.4c0.1-0.1,0.2-0.2,0.2-0.4c0-0.2-0.1-0.3-0.2-0.4l-2.7-2.7c-0.2-0.2-0.6-0.2-0.8,0l-1.4,1.4
		c-0.2,0.2-0.5,0.2-0.8,0.1c-1.1-0.6-2.2-1.1-3.4-1.4c-0.3-0.1-0.5-0.3-0.5-0.6v-2c0-0.3-0.3-0.6-0.6-0.6h-3.9
		c-0.3,0-0.6,0.3-0.6,0.6v2c0,0.3-0.2,0.6-0.5,0.6c-1.2,0.3-2.4,0.8-3.4,1.4c-0.3,0.2-0.6,0.1-0.8-0.1l-1.4-1.4
		c-0.2-0.2-0.6-0.2-0.8,0l-2.7,2.7c-0.1,0.1-0.2,0.2-0.2,0.4c0,0.2,0.1,0.3,0.2,0.4l1.4,1.4c0.2,0.2,0.2,0.5,0.1,0.8
		c-0.5,0.8-0.9,1.7-1.2,2.6c-0.1,0.3-0.5,0.5-0.8,0.4c-0.3-0.1-0.5-0.5-0.4-0.8c0.3-0.9,0.6-1.7,1.1-2.5l-1-1
		c-0.3-0.3-0.5-0.8-0.5-1.3c0-0.5,0.2-1,0.5-1.3l2.7-2.7c0.7-0.7,1.9-0.7,2.6,0l1,1c0.9-0.5,1.9-0.9,2.9-1.2v-1.5
		c0-1,0.8-1.8,1.8-1.8h3.9c1,0,1.8,0.8,1.8,1.8v1.5c1,0.3,2,0.7,2.9,1.2l1-1c0.7-0.7,1.9-0.7,2.6,0l2.7,2.7c0.3,0.3,0.5,0.8,0.5,1.3
		c0,0.5-0.2,1-0.5,1.3l-1,1c0.5,0.9,0.9,1.9,1.2,2.9h1.5c1,0,1.8,0.8,1.8,1.8v3.9c0,1-0.8,1.8-1.8,1.8h-1.5c-0.3,1-0.7,2-1.2,2.9
		l1,1c0.3,0.3,0.5,0.8,0.5,1.3c0,0.5-0.2,1-0.5,1.3l-2.7,2.7c-0.7,0.7-1.9,0.7-2.6,0l-1-1c-0.9,0.5-1.9,0.9-2.9,1.2v1.5
		C105.7,55.5,104.8,56.3,103.8,56.3z M101.9,48.7c-1.1,0-2.1-0.2-3.1-0.6c-0.3-0.1-0.5-0.5-0.4-0.8c0.1-0.3,0.5-0.5,0.8-0.4
		c0.8,0.3,1.7,0.5,2.7,0.5c4.2,0,7.6-3.4,7.6-7.6c0-4.2-3.4-7.6-7.6-7.6c-2.8,0-5.3,1.5-6.7,3.9c-0.2,0.3-0.6,0.4-0.9,0.3
		c-0.3-0.2-0.4-0.6-0.3-0.9c1.6-2.8,4.5-4.6,7.8-4.6c4.9,0,8.9,4,8.9,8.9S106.8,48.7,101.9,48.7z"/>
</g>
</svg>
