<?xml version="1.0" encoding="utf-8"?>
<!-- Generator: Adobe Illustrator 24.0.2, SVG Export Plug-In . SVG Version: 6.00 Build 0)  -->
<svg version="1.1" id="Layer_1" xmlns="http://www.w3.org/2000/svg" xmlns:xlink="http://www.w3.org/1999/xlink" x="0px" y="0px"
	 width="123px" height="123px" viewBox="0 0 123 123" style="enable-background:new 0 0 123 123;" xml:space="preserve">
<style type="text/css">
	.st0{fill:#DB352A;}
	.st1{fill:#393939;}
</style>
<g>
	<g>
		<path class="st0" d="M90.8,45.5H76.2c-1.4,2.8-5.8,2.8-7.6,0.4c-0.1-0.1-0.1-0.2-0.1-0.4H31.8c-0.3,0-0.5,0.2-0.5,0.5v3.1
			c0,0.3,0.2,0.5,0.5,0.5h59c0.3,0,0.5-0.2,0.5-0.5V46C91.3,45.7,91.1,45.5,90.8,45.5z M33.3,48.6c-0.6,0-1-0.4-1-1c0-0.6,0.5-1,1-1
			c0.6,0,1,0.4,1,1C34.3,48.1,33.9,48.6,33.3,48.6z M36.7,48.6c-0.6,0-1-0.4-1-1c0-0.6,0.5-1,1-1c0.6,0,1,0.4,1,1
			C37.7,48.1,37.2,48.6,36.7,48.6z M40.1,48.6c-0.6,0-1-0.4-1-1c0-0.6,0.5-1,1-1c0.6,0,1,0.4,1,1C41.1,48.1,40.6,48.6,40.1,48.6z"/>
	</g>
	<g>
		<g>
			<path class="st1" d="M109.5,92h-0.2c-3.7,0-6.7-3-6.7-6.7v-6.2c0-3.7,3-6.7,6.7-6.7h0.2c3.7,0,6.7,3,6.7,6.7v6.2
				C116.2,89,113.2,92,109.5,92z M109.3,73.7c-3,0-5.5,2.5-5.5,5.5v6.2c0,3,2.5,5.5,5.5,5.5h0.2c3,0,5.5-2.5,5.5-5.5v-6.2
				c0-3-2.5-5.5-5.5-5.5H109.3z"/>
		</g>
		<g>
			<path class="st1" d="M109.4,82.2L109.4,82.2c-1,0-1.8-0.8-1.8-1.8v-1.7c0-1,0.8-1.8,1.8-1.8c1,0,1.8,0.8,1.8,1.8v1.7
				C111.2,81.4,110.4,82.2,109.4,82.2z M109.4,78.1c-0.3,0-0.5,0.2-0.5,0.5v1.7c0,0.3,0.2,0.5,0.5,0.5h0c0.3,0,0.5-0.2,0.5-0.5v-1.7
				C109.9,78.4,109.7,78.1,109.4,78.1z"/>
		</g>
		<g>
			<path class="st1" d="M108.3,79.7h-5c-0.4,0-0.6-0.3-0.6-0.6c0-0.4,0.3-0.6,0.6-0.6h5c0.4,0,0.6,0.3,0.6,0.6
				C108.9,79.4,108.6,79.7,108.3,79.7z"/>
		</g>
		<g>
			<path class="st1" d="M115.6,79.7h-5c-0.4,0-0.6-0.3-0.6-0.6c0-0.4,0.3-0.6,0.6-0.6h5c0.4,0,0.6,0.3,0.6,0.6
				C116.2,79.4,116,79.7,115.6,79.7z"/>
		</g>
		<g>
			<path class="st1" d="M109.4,78.1c-0.4,0-0.6-0.3-0.6-0.6V73c0-0.4,0.3-0.6,0.6-0.6s0.6,0.3,0.6,0.6v4.5
				C110.1,77.9,109.8,78.1,109.4,78.1z"/>
		</g>
	</g>
	<g>
		<g>
			<path class="st1" d="M85.6,101.8H32.8c-0.4,0-0.6-0.3-0.6-0.6c0-0.4,0.3-0.6,0.6-0.6h52.9c0.4,0,0.6,0.3,0.6,0.6
				C86.3,101.5,86,101.8,85.6,101.8z"/>
		</g>
		<g>
			<path class="st1" d="M30.2,101.8h-1.6c-0.4,0-0.6-0.3-0.6-0.6c0-0.4,0.3-0.6,0.6-0.6h1.6c0.4,0,0.6,0.3,0.6,0.6
				C30.8,101.5,30.5,101.8,30.2,101.8z"/>
		</g>
		<g>
			<path class="st1" d="M90.9,101.8h-3.1c-0.4,0-0.6-0.3-0.6-0.6c0-0.4,0.3-0.6,0.6-0.6h3.1c0.4,0,0.6,0.3,0.6,0.6
				C91.5,101.5,91.2,101.8,90.9,101.8z"/>
		</g>
		<g>
			<path class="st1" d="M94.2,101.8h-1c-0.4,0-0.6-0.3-0.6-0.6c0-0.4,0.3-0.6,0.6-0.6h1c0.4,0,0.6,0.3,0.6,0.6
				C94.8,101.5,94.5,101.8,94.2,101.8z"/>
		</g>
		<g>
			<path class="st1" d="M96.8,101.8h-0.3c-0.4,0-0.6-0.3-0.6-0.6c0-0.4,0.3-0.6,0.6-0.6h0.3c0.4,0,0.6,0.3,0.6,0.6
				C97.4,101.5,97.1,101.8,96.8,101.8z"/>
		</g>
	</g>
	<g>
		<g>
			<path class="st1" d="M25.3,46.2c-0.4,0-0.6-0.3-0.6-0.6v-2.9c0-0.4,0.3-0.6,0.6-0.6c0.4,0,0.6,0.3,0.6,0.6v2.9
				C25.9,45.9,25.7,46.2,25.3,46.2z"/>
		</g>
		<g>
			<path class="st1" d="M33,91.5h-6.4c-1.1,0-1.9-0.9-1.9-1.9v-42c0-0.4,0.3-0.6,0.6-0.6c0.4,0,0.6,0.3,0.6,0.6v42
				c0,0.4,0.3,0.6,0.6,0.6H33c0.4,0,0.6,0.3,0.6,0.6C33.6,91.2,33.3,91.5,33,91.5z"/>
		</g>
		<g>
			<path class="st1" d="M38.5,91.5h-3.4c-0.4,0-0.6-0.3-0.6-0.6c0-0.4,0.3-0.6,0.6-0.6h3.4c0.4,0,0.6,0.3,0.6,0.6
				C39.1,91.2,38.8,91.5,38.5,91.5z"/>
		</g>
		<g>
			<path class="st1" d="M42.1,91.5h-1.4c-0.4,0-0.6-0.3-0.6-0.6c0-0.4,0.3-0.6,0.6-0.6h1.4c0.4,0,0.6,0.3,0.6,0.6
				C42.8,91.2,42.5,91.5,42.1,91.5z"/>
		</g>
		<g>
			<path class="st1" d="M25.3,41.2c-0.4,0-0.6-0.3-0.6-0.6v-1.1c0-1.1,0.9-1.9,1.9-1.9h64c0.4,0,0.6,0.3,0.6,0.6
				c0,0.4-0.3,0.6-0.6,0.6h-64c-0.4,0-0.6,0.3-0.6,0.6v1.1C25.9,40.9,25.7,41.2,25.3,41.2z"/>
		</g>
		<g>
			<path class="st1" d="M96.7,91.5H44.3c-0.4,0-0.6-0.3-0.6-0.6c0-0.4,0.3-0.6,0.6-0.6h52.3c0.4,0,0.6-0.3,0.6-0.6V72
				c0-0.4,0.3-0.6,0.6-0.6c0.4,0,0.6,0.3,0.6,0.6v17.6C98.6,90.6,97.7,91.5,96.7,91.5z"/>
		</g>
		<g>
			<path class="st1" d="M98,57.7c-0.4,0-0.6-0.3-0.6-0.6V39.5c0-0.4-0.3-0.6-0.6-0.6H44.4c-0.4,0-0.6-0.3-0.6-0.6
				c0-0.4,0.3-0.6,0.6-0.6h52.3c1.1,0,1.9,0.9,1.9,1.9V57C98.7,57.4,98.4,57.7,98,57.7z"/>
		</g>
		<g>
			<path class="st1" d="M94.3,79.7H28.9c-0.4,0-0.6-0.3-0.6-0.6V43.4c0-0.4,0.3-0.6,0.6-0.6h6.3c0.4,0,0.6,0.3,0.6,0.6
				c0,0.4-0.3,0.6-0.6,0.6h-5.7v34.4h64.1V65.9c0-0.4,0.3-0.6,0.6-0.6c0.4,0,0.6,0.3,0.6,0.6v13.1C95,79.4,94.7,79.7,94.3,79.7z"/>
		</g>
		<g>
			<path class="st1" d="M94.3,79.7H28.9c-0.4,0-0.6-0.3-0.6-0.6V65.9c0-0.4,0.3-0.6,0.6-0.6c0.4,0,0.6,0.3,0.6,0.6v12.5h64.1V44H88
				c-0.4,0-0.6-0.3-0.6-0.6c0-0.4,0.3-0.6,0.6-0.6h6.3c0.4,0,0.6,0.3,0.6,0.6v35.7C95,79.4,94.7,79.7,94.3,79.7z"/>
		</g>
		<g>
			<path class="st1" d="M89.9,44H77.2c-0.4,0-0.6-0.3-0.6-0.6c0-0.4,0.3-0.6,0.6-0.6h12.7c0.4,0,0.6,0.3,0.6,0.6
				C90.6,43.7,90.3,44,89.9,44z"/>
		</g>
		<g>
			<path class="st1" d="M67.6,98.7H55.7c-0.4,0-0.6-0.3-0.6-0.6v-7.2c0-0.4,0.3-0.6,0.6-0.6h11.9c0.4,0,0.6,0.3,0.6,0.6v7.2
				C68.2,98.4,68,98.7,67.6,98.7z M56.3,97.4H67v-5.9H56.3V97.4z"/>
		</g>
		<g>
			<path class="st1" d="M74,101.8H49.2c-1,0-1.8-0.8-1.8-1.8v-0.8c0-1,0.8-1.8,1.8-1.8H74c1,0,1.8,0.8,1.8,1.8v0.8
				C75.9,101,75,101.8,74,101.8z M49.2,98.7c-0.3,0-0.5,0.2-0.5,0.5v0.8c0,0.3,0.2,0.5,0.5,0.5H74c0.3,0,0.5-0.2,0.5-0.5v-0.8
				c0-0.3-0.2-0.5-0.5-0.5H49.2z"/>
		</g>
		<g>
			<path class="st1" d="M61.6,87.6c-1.4,0-2.6-1.2-2.6-2.6c0-1.4,1.2-2.6,2.6-2.6s2.6,1.2,2.6,2.6C64.2,86.4,63,87.6,61.6,87.6z
				 M61.6,83.7c-0.7,0-1.3,0.6-1.3,1.3c0,0.7,0.6,1.3,1.3,1.3s1.3-0.6,1.3-1.3C62.9,84.3,62.3,83.7,61.6,83.7z"/>
		</g>
		<g>
			<path class="st1" d="M46.6,44h-8.8c-0.4,0-0.6-0.3-0.6-0.6c0-0.4,0.3-0.6,0.6-0.6h8.8c0.4,0,0.6,0.3,0.6,0.6
				C47.3,43.7,47,44,46.6,44z"/>
		</g>
		<g>
			<path class="st1" d="M54.5,44h-5c-0.4,0-0.6-0.3-0.6-0.6c0-0.4,0.3-0.6,0.6-0.6h5c0.4,0,0.6,0.3,0.6,0.6
				C55.1,43.7,54.8,44,54.5,44z"/>
		</g>
		<g>
			<path class="st1" d="M59.6,44h-2.5c-0.4,0-0.6-0.3-0.6-0.6c0-0.4,0.3-0.6,0.6-0.6h2.5c0.4,0,0.6,0.3,0.6,0.6
				C60.2,43.7,59.9,44,59.6,44z"/>
		</g>
		<g>
			<path class="st1" d="M63.3,44h-1.2c-0.4,0-0.6-0.3-0.6-0.6c0-0.4,0.3-0.6,0.6-0.6h1.2c0.4,0,0.6,0.3,0.6,0.6
				C64,43.7,63.7,44,63.3,44z"/>
		</g>
		<g>
			<path class="st1" d="M97.9,62.8c-0.4,0-0.6-0.3-0.6-0.6v-3c0-0.4,0.3-0.6,0.6-0.6c0.4,0,0.6,0.3,0.6,0.6v3
				C98.6,62.5,98.3,62.8,97.9,62.8z"/>
		</g>
		<g>
			<path class="st1" d="M97.9,67c-0.4,0-0.6-0.3-0.6-0.6v-1.9c0-0.4,0.3-0.6,0.6-0.6c0.4,0,0.6,0.3,0.6,0.6v1.9
				C98.6,66.7,98.3,67,97.9,67z"/>
		</g>
		<g>
			<path class="st1" d="M97.9,70.2c-0.4,0-0.6-0.3-0.6-0.6v-0.8c0-0.4,0.3-0.6,0.6-0.6c0.4,0,0.6,0.3,0.6,0.6v0.8
				C98.6,69.9,98.3,70.2,97.9,70.2z"/>
		</g>
	</g>
	<g>
		<path class="st0" d="M79.6,34.2H65.9c-1.9,4.9-3.3,11.2-3.3,18.1c0,6.1,1.6,11.8,3.5,16.4h13.4c1.9-4.6,3.5-10.3,3.5-16.4
			C82.9,45.5,81.5,39.2,79.6,34.2z M72.8,48c-2.4,0-4.4-2.1-4.4-4.8c0-2.6,2-4.8,4.4-4.8c2.4,0,4.4,2.1,4.4,4.8
			C77.2,45.9,75.2,48,72.8,48z"/>
	</g>
	<g>
		<path class="st1" d="M79.6,34.9H65.9c-0.2,0-0.4-0.1-0.5-0.3c-0.1-0.2-0.1-0.4-0.1-0.6c2.3-5.8,6.1-10.6,7.4-10.6
			c1.3,0,5.1,4.7,7.4,10.6c0.1,0.2,0.1,0.4-0.1,0.6C80,34.8,79.8,34.9,79.6,34.9z M66.9,33.6h11.8c-2.2-5.1-5-8.3-5.9-8.8
			C71.9,25.3,69,28.5,66.9,33.6z M72.6,24.7L72.6,24.7L72.6,24.7z"/>
	</g>
	<g>
		<path class="st1" d="M79.5,69.4H66c-0.3,0-0.5-0.2-0.6-0.4c-2.3-5.7-3.5-11.3-3.5-16.7c0-7.8,1.8-14.3,3.4-18.4
			c0.1-0.2,0.3-0.4,0.6-0.4h13.7c0.3,0,0.5,0.2,0.6,0.4c1.5,4.1,3.4,10.5,3.4,18.4c0,5.4-1.2,11-3.5,16.7
			C80,69.3,79.7,69.4,79.5,69.4z M66.5,68.2H79c2.2-5.4,3.3-10.7,3.3-15.8c0-7.4-1.7-13.5-3.2-17.5H66.4c-1.5,4-3.2,10.1-3.2,17.5
			C63.2,57.5,64.3,62.8,66.5,68.2z"/>
	</g>
	<g>
		<path class="st1" d="M55.6,69.8c-0.1,0-0.2,0-0.3-0.1c-0.2-0.1-0.3-0.3-0.3-0.5V57.9c0-0.2,0.1-0.4,0.2-0.5l6.7-5.5
			c0.3-0.2,0.7-0.2,0.9,0.1c0.2,0.3,0.2,0.7-0.1,0.9l-6.5,5.3v10l8.1-3.7c0.3-0.1,0.7,0,0.8,0.3c0.1,0.3,0,0.7-0.3,0.8l-9,4.1
			C55.8,69.7,55.7,69.8,55.6,69.8z"/>
	</g>
	<g>
		<path class="st1" d="M89.9,69.8c-0.1,0-0.2,0-0.3-0.1l-9-4.1c-0.3-0.1-0.5-0.5-0.3-0.8c0.1-0.3,0.5-0.5,0.8-0.3l8.1,3.7v-10
			l-6.5-5.3c-0.3-0.2-0.3-0.6-0.1-0.9c0.2-0.3,0.6-0.3,0.9-0.1l6.7,5.5c0.1,0.1,0.2,0.3,0.2,0.5v11.3c0,0.2-0.1,0.4-0.3,0.5
			C90.2,69.7,90.1,69.8,89.9,69.8z"/>
	</g>
	<g>
		<path class="st1" d="M72.8,66c-0.4,0-0.6-0.3-0.6-0.6v-13c0-0.4,0.3-0.6,0.6-0.6s0.6,0.3,0.6,0.6v13C73.4,65.8,73.1,66,72.8,66z"
			/>
	</g>
	<g>
		<path class="st1" d="M72.8,48.3c-2.8,0-5.1-2.3-5.1-5.1c0-2.8,2.3-5.1,5.1-5.1c2.8,0,5.1,2.3,5.1,5.1
			C77.9,46.1,75.6,48.3,72.8,48.3z M72.8,39.5c-2.1,0-3.8,1.7-3.8,3.8c0,2.1,1.7,3.8,3.8,3.8c2.1,0,3.8-1.7,3.8-3.8
			C76.6,41.2,74.9,39.5,72.8,39.5z"/>
	</g>
	<g>
		<path class="st1" d="M76.8,79.7c-0.1,0-0.2,0-0.3-0.1c-0.3-0.2-0.4-0.6-0.3-0.9c1.2-2.2,1.7-3.9,1.7-5.2c0-1.5-0.5-3-1.3-4.1h-7.5
			c-0.8,1.1-1.2,2.6-1.3,4.1c0,1.5,0.5,3.1,1.6,5.2c0.2,0.3,0.1,0.7-0.3,0.9c-0.3,0.2-0.7,0.1-0.9-0.3c-1.2-2.2-1.8-4.1-1.8-5.8
			c0-1.9,0.7-3.8,1.7-5.1c0.1-0.2,0.3-0.2,0.5-0.2H77c0.2,0,0.4,0.1,0.5,0.2c1.1,1.3,1.7,3.2,1.7,5.1c0.1,1.5-0.5,3.4-1.8,5.8
			C77.3,79.5,77,79.7,76.8,79.7z"/>
	</g>
	<g>
		<g>
			<path class="st1" d="M45,76.5H32.9c-0.6,0-1.1-0.5-1.1-1.1v-8.1c0-0.6,0.5-1.1,1.1-1.1H45c0.6,0,1.1,0.5,1.1,1.1v8.1
				C46.2,76,45.7,76.5,45,76.5z M33,75.2h11.8v-7.8H33V75.2z"/>
		</g>
		<g>
			<path class="st1" d="M39,72c-0.1,0-0.2,0-0.3-0.1l-6.6-4c-0.3-0.2-0.4-0.6-0.2-0.9c0.2-0.3,0.6-0.4,0.9-0.2l6.2,3.8l6.2-3.8
				c0.3-0.2,0.7-0.1,0.9,0.2c0.2,0.3,0.1,0.7-0.2,0.9l-6.6,4C39.2,71.9,39.1,72,39,72z"/>
		</g>
		<g>
			<path class="st1" d="M32.6,76.3c-0.2,0-0.3-0.1-0.4-0.2c-0.3-0.2-0.3-0.6,0-0.9L37,70c0.2-0.3,0.6-0.3,0.9,0
				c0.3,0.2,0.3,0.6,0,0.9l-4.8,5.2C33,76.2,32.8,76.3,32.6,76.3z"/>
		</g>
		<g>
			<path class="st1" d="M45.4,76.3c-0.2,0-0.3-0.1-0.5-0.2l-4.8-5.2c-0.2-0.3-0.2-0.7,0-0.9c0.3-0.2,0.7-0.2,0.9,0l4.8,5.2
				c0.2,0.3,0.2,0.7,0,0.9C45.7,76.2,45.5,76.3,45.4,76.3z"/>
		</g>
	</g>
	<g>
		<path class="st1" d="M32,31.6H2.8c-0.2,0-0.3-0.1-0.5-0.2c-0.1-0.1-0.2-0.3-0.2-0.5c0-3.1,2.5-5.6,5.6-5.6c0.6,0,1.3,0.1,1.9,0.3
			c1.2-2.8,4-4.6,7.1-4.6c2.8,0,5.4,1.5,6.7,3.9c0.9-0.5,2-0.8,3.1-0.8c3.4,0,6.2,2.8,6.2,6.2c0,0.2,0,0.4,0,0.6
			C32.7,31.4,32.4,31.6,32,31.6z M3.5,30.4h27.9c0-2.7-2.2-4.8-4.9-4.8c-1.1,0-2.1,0.3-2.9,1c-0.2,0.1-0.4,0.2-0.5,0.1
			c-0.2,0-0.3-0.2-0.4-0.4c-1-2.3-3.4-3.8-5.9-3.8c-2.7,0-5.2,1.7-6.1,4.3c-0.1,0.2-0.2,0.3-0.4,0.4c-0.2,0.1-0.4,0.1-0.5,0
			c-0.6-0.3-1.3-0.5-1.9-0.5C5.6,26.7,3.8,28.3,3.5,30.4z"/>
	</g>
	<g>
		<path class="st1" d="M120.2,54.9h-22c-0.4,0-0.6-0.3-0.6-0.6s0.3-0.6,0.6-0.6h21.4c0,0,0,0,0,0c0-3.4-2.8-6.2-6.2-6.2
			c-1.3,0-2.6,0.4-3.7,1.2c-0.2,0.1-0.4,0.2-0.5,0.1c-0.2,0-0.3-0.2-0.4-0.4c-1.3-2.9-4.2-4.8-7.4-4.8c-1,0-2,0.2-3,0.6
			c-0.3,0.1-0.7,0-0.8-0.4c-0.1-0.3,0-0.7,0.4-0.8c1.1-0.4,2.2-0.6,3.4-0.6c3.4,0,6.6,1.9,8.2,4.9c1.2-0.7,2.5-1.1,3.8-1.1
			c4.1,0,7.5,3.4,7.5,7.5c0,0.2,0,0.5,0,0.7C120.8,54.6,120.5,54.9,120.2,54.9z"/>
	</g>
</g>
</svg>
