<?xml version="1.0" encoding="utf-8"?>
<!-- Generator: Adobe Illustrator 24.0.2, SVG Export Plug-In . SVG Version: 6.00 Build 0)  -->
<svg version="1.1" id="Layer_1" xmlns="http://www.w3.org/2000/svg" xmlns:xlink="http://www.w3.org/1999/xlink" x="0px" y="0px"
	 width="123px" height="123px" viewBox="0 0 123 123" style="enable-background:new 0 0 123 123;" xml:space="preserve">
<style type="text/css">
	.st0{fill:#393939;}
	.st1{fill:#DB352A;}
</style>
<g>
	<g>
		<path class="st0" d="M93.3,43.4c-0.4,0-0.6-0.3-0.6-0.6V28.9H70v5.7c0,0.4-0.3,0.6-0.6,0.6s-0.6-0.3-0.6-0.6v-6.3
			c0-0.4,0.3-0.6,0.6-0.6h24c0.4,0,0.6,0.3,0.6,0.6v14.6C94,43.2,93.7,43.4,93.3,43.4z"/>
	</g>
	<g>
		<path class="st0" d="M88.2,49.6H76.6c-0.4,0-0.6-0.3-0.6-0.6c0-0.4,0.3-0.6,0.6-0.6h11.6c0.4,0,0.6,0.3,0.6,0.6
			C88.8,49.3,88.5,49.6,88.2,49.6z"/>
	</g>
	<g>
		<path class="st0" d="M75,23.2h-2.5c-0.4,0-0.6-0.3-0.6-0.6c0-0.4,0.3-0.6,0.6-0.6H75c0.4,0,0.6,0.3,0.6,0.6
			C75.7,22.9,75.4,23.2,75,23.2z"/>
	</g>
	<g>
		<path class="st0" d="M78.9,23.2h-2.6c-0.4,0-0.6-0.3-0.6-0.6c0-0.4,0.3-0.6,0.6-0.6h2.6c0.4,0,0.6,0.3,0.6,0.6
			C79.5,22.9,79.2,23.2,78.9,23.2z"/>
	</g>
	<g>
		<path class="st0" d="M82.6,23.2h-2.5c-0.4,0-0.6-0.3-0.6-0.6c0-0.4,0.3-0.6,0.6-0.6h2.5c0.4,0,0.6,0.3,0.6,0.6
			C83.3,22.9,83,23.2,82.6,23.2z"/>
	</g>
	<g>
		<path class="st0" d="M86.4,23.2h-2.4c-0.4,0-0.6-0.3-0.6-0.6c0-0.4,0.3-0.6,0.6-0.6h2.4c0.4,0,0.6,0.3,0.6,0.6
			C87,22.9,86.7,23.2,86.4,23.2z"/>
	</g>
	<g>
		<path class="st0" d="M90.2,23.2h-2.5c-0.4,0-0.6-0.3-0.6-0.6c0-0.4,0.3-0.6,0.6-0.6h2.5c0.4,0,0.6,0.3,0.6,0.6
			C90.9,22.9,90.6,23.2,90.2,23.2z"/>
	</g>
	<g>
		<path class="st0" d="M93.3,28.9h-24c-0.4,0-0.6-0.3-0.6-0.6v-3.9c0-1.3,1.1-2.4,2.4-2.4c0.4,0,0.6,0.3,0.6,0.6
			c0,0.4-0.3,0.6-0.6,0.6c-0.6,0-1.1,0.5-1.1,1.1v3.3h22.7v-3.3c0-0.6-0.5-1.1-1.1-1.1c-0.4,0-0.6-0.3-0.6-0.6
			c0-0.4,0.3-0.6,0.6-0.6c1.3,0,2.4,1.1,2.4,2.4v3.9C94,28.6,93.7,28.9,93.3,28.9z"/>
	</g>
	<g>
		<path class="st0" d="M71.9,24.7h-0.1c-0.3,0-0.5-0.2-0.5-0.5v-2.7c0-0.3,0.2-0.5,0.5-0.5h0.1c0.3,0,0.5,0.2,0.5,0.5v2.7
			C72.4,24.5,72.2,24.7,71.9,24.7z"/>
	</g>
	<g>
		<path class="st0" d="M79.5,24.7h-0.1c-0.3,0-0.5-0.2-0.5-0.5v-2.7c0-0.3,0.2-0.5,0.5-0.5h0.1c0.3,0,0.5,0.2,0.5,0.5v2.7
			C80,24.5,79.8,24.7,79.5,24.7z"/>
	</g>
	<g>
		<path class="st0" d="M75.7,24.7h-0.1c-0.3,0-0.5-0.2-0.5-0.5v-2.7c0-0.3,0.2-0.5,0.5-0.5h0.1c0.3,0,0.5,0.2,0.5,0.5v2.7
			C76.2,24.5,76,24.7,75.7,24.7z"/>
	</g>
	<g>
		<path class="st0" d="M83.3,24.7h-0.1c-0.3,0-0.5-0.2-0.5-0.5v-2.7c0-0.3,0.2-0.5,0.5-0.5h0.1c0.3,0,0.5,0.2,0.5,0.5v2.7
			C83.9,24.5,83.6,24.7,83.3,24.7z"/>
	</g>
	<g>
		<path class="st0" d="M87.1,24.7H87c-0.3,0-0.5-0.2-0.5-0.5v-2.7c0-0.3,0.2-0.5,0.5-0.5h0.1c0.3,0,0.5,0.2,0.5,0.5v2.7
			C87.7,24.5,87.4,24.7,87.1,24.7z"/>
	</g>
	<g>
		<path class="st0" d="M90.9,24.7h-0.1c-0.3,0-0.5-0.2-0.5-0.5v-2.7c0-0.3,0.2-0.5,0.5-0.5h0.1c0.3,0,0.5,0.2,0.5,0.5v2.7
			C91.5,24.5,91.2,24.7,90.9,24.7z"/>
	</g>
	<g>
		<path class="st1" d="M79.9,42.7c-0.2,0-0.4-0.1-0.5-0.3L76.2,38c-0.2-0.3-0.1-0.7,0.2-0.9c0.3-0.2,0.7-0.1,0.9,0.2l2.6,3.7l5-7.3
			c0.2-0.3,0.6-0.4,0.9-0.2c0.3,0.2,0.4,0.6,0.2,0.9l-5.5,8.1C80.3,42.6,80.1,42.7,79.9,42.7C79.9,42.7,79.9,42.7,79.9,42.7z"/>
	</g>
	<g>
		<path class="st1" d="M81.3,46.1c-1.9,0-3.6-0.6-5.1-1.8c-0.3-0.2-0.3-0.6-0.1-0.9c0.2-0.3,0.6-0.3,0.9-0.1c1.2,1,2.7,1.5,4.3,1.5
			c3.8,0,6.8-3.1,6.8-6.8c0-3.8-3.1-6.8-6.8-6.8c-2.6,0-4.9,1.4-6.1,3.7c-0.2,0.3-0.5,0.4-0.9,0.3c-0.3-0.2-0.4-0.6-0.3-0.9
			c1.4-2.7,4.2-4.4,7.2-4.4c4.5,0,8.1,3.6,8.1,8.1C89.4,42.5,85.7,46.1,81.3,46.1z"/>
	</g>
	<g>
		<rect x="89.4" y="67.5" class="st1" width="6.3" height="15.3"/>
	</g>
	<g>
		<path class="st1" d="M89.7,46.9v-2.7c0-0.9,0.7-1.7,1.7-1.7h2.4c0.9,0,1.7,0.7,1.7,1.7v2.7H89.7z"/>
	</g>
	<g>
		<path class="st0" d="M95.4,68.2h-5.8c-1.1,0-2-0.9-2-2v-18c0-1.1,0.9-2,2-2h5.8c1.1,0,2,0.9,2,2v18C97.4,67.3,96.5,68.2,95.4,68.2
			z M89.6,47.5c-0.4,0-0.7,0.3-0.7,0.7v18c0,0.4,0.3,0.7,0.7,0.7h5.8c0.4,0,0.7-0.3,0.7-0.7v-18c0-0.4-0.3-0.7-0.7-0.7H89.6z"/>
	</g>
	<g>
		<path class="st0" d="M95.9,83.5h-6.8c-0.4,0-0.6-0.3-0.6-0.6V67.5c0-0.4,0.3-0.6,0.6-0.6h6.8c0.4,0,0.6,0.3,0.6,0.6v15.3
			C96.6,83.2,96.3,83.5,95.9,83.5z M89.8,82.2h5.5v-14h-5.5V82.2z"/>
	</g>
	<g>
		<path class="st0" d="M95.4,47.5h-5.7c-0.4,0-0.6-0.3-0.6-0.6v-2.7c0-1.3,1-2.3,2.3-2.3h2.4c1.3,0,2.3,1,2.3,2.3v2.7
			C96,47.2,95.7,47.5,95.4,47.5z M90.3,46.2h4.4v-2c0-0.6-0.5-1-1-1h-2.4c-0.6,0-1,0.5-1,1V46.2z"/>
	</g>
	<g>
		<path class="st0" d="M93,91.4h-1c-0.3,0-0.5-0.2-0.6-0.4l-2.9-8c-0.1-0.2,0-0.4,0.1-0.6c0.1-0.2,0.3-0.3,0.5-0.3h6.8
			c0.2,0,0.4,0.1,0.5,0.3c0.1,0.2,0.1,0.4,0.1,0.6l-2.9,8C93.5,91.2,93.3,91.4,93,91.4z M92.5,90.1L92.5,90.1l2.5-6.7h-5L92.5,90.1z
			"/>
	</g>
	<g>
		<path class="st0" d="M92.5,93.8c-0.4,0-0.6-0.3-0.6-0.6v-2.4c0-0.4,0.3-0.6,0.6-0.6c0.4,0,0.6,0.3,0.6,0.6v2.4
			C93.2,93.5,92.9,93.8,92.5,93.8z"/>
	</g>
	<g>
		<path class="st0" d="M100.5,63.4h-2.2c-0.4,0-0.6-0.3-0.6-0.6v-4.5c0-0.4,0.3-0.6,0.6-0.6s0.6,0.3,0.6,0.6v3.8h0.9V50h-3
			c-0.4,0-0.6-0.3-0.6-0.6c0-0.4,0.3-0.6,0.6-0.6h3.6c0.4,0,0.6,0.3,0.6,0.6v13.5C101.1,63.1,100.8,63.4,100.5,63.4z"/>
	</g>
	<g>
		<path class="st1" d="M56.8,49.2h-9.7c-0.8,0-1.5-0.7-1.5-1.5v-0.6c0-0.8,0.7-1.5,1.5-1.5h9.7c0.8,0,1.5,0.7,1.5,1.5v0.6
			C58.2,48.5,57.6,49.2,56.8,49.2z"/>
	</g>
	<g>
		<path class="st1" d="M54,57.5H43c-0.9,0-1.6-0.7-1.6-1.6v-0.4c0-0.9,0.7-1.6,1.6-1.6h11c0.9,0,1.6,0.7,1.6,1.6v0.4
			C55.6,56.8,54.9,57.5,54,57.5z"/>
	</g>
	<g>
		<path class="st1" d="M54,65.4H43c-0.9,0-1.6-0.7-1.6-1.6v-0.4c0-0.9,0.7-1.6,1.6-1.6h11c0.9,0,1.6,0.7,1.6,1.6v0.4
			C55.6,64.6,54.9,65.4,54,65.4z"/>
	</g>
	<g>
		<path class="st1" d="M54,73.2H43c-0.9,0-1.6-0.7-1.6-1.6v-0.4c0-0.9,0.7-1.6,1.6-1.6h11c0.9,0,1.6,0.7,1.6,1.6v0.4
			C55.6,72.5,54.9,73.2,54,73.2z"/>
	</g>
	<g>
		<path class="st1" d="M54,81.1H43c-0.9,0-1.6-0.7-1.6-1.6v-0.4c0-0.9,0.7-1.6,1.6-1.6h11c0.9,0,1.6,0.7,1.6,1.6v0.4
			C55.6,80.4,54.9,81.1,54,81.1z"/>
	</g>
	<path class="st0" d="M64.2,42.3H40.9c-0.6,0-1.1-0.5-1.1-1.1v-8.6c0-0.6,0.5-1.1,1.1-1.1h1.8V29c0-0.6,0.5-1.1,1.1-1.1h17.7
		c0.6,0,1.1,0.5,1.1,1.1v2.5h1.8c0.6,0,1.1,0.5,1.1,1.1v8.6C65.4,41.8,64.9,42.3,64.2,42.3z M41.1,41h23v-8.3h-2.2
		c-0.4,0-0.6-0.3-0.6-0.6v-2.9H44v2.9c0,0.4-0.3,0.6-0.6,0.6h-2.2V41z"/>
	<path class="st0" d="M70.9,88.7H37c-0.4,0-0.6-0.3-0.6-0.6c0-0.4,0.3-0.6,0.6-0.6h33.3V40.7h-5.3c-0.4,0-0.6-0.3-0.6-0.6
		c0-0.4,0.3-0.6,0.6-0.6h6c0.4,0,0.6,0.3,0.6,0.6v48C71.5,88.4,71.2,88.7,70.9,88.7z"/>
	<path class="st0" d="M34.3,59c-0.4,0-0.6-0.3-0.6-0.6V40c0-0.4,0.3-0.6,0.6-0.6h5.9c0.4,0,0.6,0.3,0.6,0.6c0,0.4-0.3,0.6-0.6,0.6
		h-5.2v17.7C34.9,58.7,34.6,59,34.3,59z"/>
	<path class="st0" d="M28.5,56.7c-0.4,0-0.6-0.3-0.6-0.6V36.2c0-1.3,1-2.3,2.3-2.3h10.2c0.4,0,0.6,0.3,0.6,0.6
		c0,0.4-0.3,0.6-0.6,0.6H30.2c-0.6,0-1,0.5-1,1v19.9C29.2,56.4,28.9,56.7,28.5,56.7z"/>
	<g>
		<path class="st0" d="M100,94.4H38.8c-0.4,0-0.6-0.3-0.6-0.6c0-0.4,0.3-0.6,0.6-0.6H100c0.4,0,0.6,0.3,0.6,0.6
			C100.7,94.1,100.4,94.4,100,94.4z"/>
	</g>
	<g>
		<path class="st0" d="M76.6,88.7c-0.4,0-0.6-0.3-0.6-0.6v-8.5c0-0.4,0.3-0.6,0.6-0.6c0.4,0,0.6,0.3,0.6,0.6V88
			C77.3,88.4,77,88.7,76.6,88.7z"/>
	</g>
	<g>
		<path class="st0" d="M76.6,78.1c-0.4,0-0.6-0.3-0.6-0.6v-2.6c0-0.4,0.3-0.6,0.6-0.6s0.6,0.3,0.6,0.6v2.6
			C77.3,77.8,77,78.1,76.6,78.1z"/>
	</g>
	<g>
		<path class="st0" d="M76.6,73.4c-0.4,0-0.6-0.3-0.6-0.6v-1.3c0-0.4,0.3-0.6,0.6-0.6s0.6,0.3,0.6,0.6v1.3
			C77.3,73.1,77,73.4,76.6,73.4z"/>
	</g>
	<path class="st0" d="M76.6,70.1c-0.4,0-0.6-0.3-0.6-0.6V36.2c0-0.6-0.5-1-1-1H64.7c-0.4,0-0.6-0.3-0.6-0.6c0-0.4,0.3-0.6,0.6-0.6
		h10.2c1.3,0,2.3,1,2.3,2.3v33.2C77.3,69.8,77,70.1,76.6,70.1z"/>
	<g>
		<g>
			<path class="st0" d="M62.6,57.7c-0.2,0-0.4-0.1-0.5-0.3l-1.8-2.5c-0.2-0.3-0.1-0.7,0.2-0.9c0.3-0.2,0.7-0.1,0.9,0.2l1.3,1.8
				l2.6-3.9c0.2-0.3,0.6-0.4,0.9-0.2c0.3,0.2,0.4,0.6,0.2,0.9l-3.2,4.7C63,57.6,62.8,57.7,62.6,57.7C62.6,57.7,62.6,57.7,62.6,57.7z
				"/>
		</g>
		<g>
			<path class="st0" d="M62.6,65.6c-0.2,0-0.4-0.1-0.5-0.3l-1.8-2.5c-0.2-0.3-0.1-0.7,0.2-0.9c0.3-0.2,0.7-0.1,0.9,0.2l1.3,1.8
				l2.6-3.9c0.2-0.3,0.6-0.4,0.9-0.2c0.3,0.2,0.4,0.6,0.2,0.9l-3.2,4.7C63,65.4,62.8,65.6,62.6,65.6C62.6,65.6,62.6,65.6,62.6,65.6z
				"/>
		</g>
		<g>
			<path class="st0" d="M62.6,73.4c-0.2,0-0.4-0.1-0.5-0.3l-1.8-2.5c-0.2-0.3-0.1-0.7,0.2-0.9c0.3-0.2,0.7-0.1,0.9,0.2l1.3,1.8
				l2.6-3.9c0.2-0.3,0.6-0.4,0.9-0.2c0.3,0.2,0.4,0.6,0.2,0.9l-3.2,4.7C63,73.3,62.8,73.4,62.6,73.4C62.6,73.4,62.6,73.4,62.6,73.4z
				"/>
		</g>
		<g>
			<path class="st0" d="M62.6,81.3c-0.2,0-0.4-0.1-0.5-0.3l-1.8-2.5c-0.2-0.3-0.1-0.7,0.2-0.9c0.3-0.2,0.7-0.1,0.9,0.2l1.3,1.8
				l2.6-3.9c0.2-0.3,0.6-0.4,0.9-0.2c0.3,0.2,0.4,0.6,0.2,0.9L63.1,81C63,81.2,62.8,81.3,62.6,81.3C62.6,81.3,62.6,81.3,62.6,81.3z"
				/>
		</g>
	</g>
	<path class="st0" d="M58.6,34.7H46.6c-0.4,0-0.6-0.3-0.6-0.6c0-0.4,0.3-0.6,0.6-0.6h11.9c0.4,0,0.6,0.3,0.6,0.6
		C59.2,34.4,58.9,34.7,58.6,34.7z"/>
	<path class="st0" d="M58.6,37.1H46.6c-0.4,0-0.6-0.3-0.6-0.6c0-0.4,0.3-0.6,0.6-0.6h11.9c0.4,0,0.6,0.3,0.6,0.6
		C59.2,36.8,58.9,37.1,58.6,37.1z"/>
	<path class="st0" d="M58.6,39.5H46.6c-0.4,0-0.6-0.3-0.6-0.6c0-0.4,0.3-0.6,0.6-0.6h11.9c0.4,0,0.6,0.3,0.6,0.6
		C59.2,39.2,58.9,39.5,58.6,39.5z"/>
	<g>
		<path class="st0" d="M57.4,49.6h-9.7c-1.2,0-2.1-1-2.1-2.1v-0.6c0-1.2,1-2.1,2.1-2.1h9.7c1.2,0,2.1,1,2.1,2.1v0.6
			C59.6,48.7,58.6,49.6,57.4,49.6z M47.7,46c-0.5,0-0.9,0.4-0.9,0.9v0.6c0,0.5,0.4,0.9,0.9,0.9h9.7c0.5,0,0.9-0.4,0.9-0.9v-0.6
			c0-0.5-0.4-0.9-0.9-0.9H47.7z"/>
	</g>
	<g>
		<path class="st0" d="M54.2,57.9h-11c-1.2,0-2.2-1-2.2-2.2v-0.4c0-1.2,1-2.2,2.2-2.2h11c1.2,0,2.2,1,2.2,2.2v0.4
			C56.4,56.9,55.4,57.9,54.2,57.9z M43.2,54.4c-0.5,0-0.9,0.4-0.9,0.9v0.4c0,0.5,0.4,0.9,0.9,0.9h11c0.5,0,0.9-0.4,0.9-0.9v-0.4
			c0-0.5-0.4-0.9-0.9-0.9H43.2z"/>
	</g>
	<g>
		<path class="st0" d="M54.2,65.8h-11c-1.2,0-2.2-1-2.2-2.2v-0.4c0-1.2,1-2.2,2.2-2.2h11c1.2,0,2.2,1,2.2,2.2v0.4
			C56.4,64.8,55.4,65.8,54.2,65.8z M43.2,62.2c-0.5,0-0.9,0.4-0.9,0.9v0.4c0,0.5,0.4,0.9,0.9,0.9h11c0.5,0,0.9-0.4,0.9-0.9v-0.4
			c0-0.5-0.4-0.9-0.9-0.9H43.2z"/>
	</g>
	<g>
		<path class="st0" d="M54.2,73.7h-11c-1.2,0-2.2-1-2.2-2.2V71c0-1.2,1-2.2,2.2-2.2h11c1.2,0,2.2,1,2.2,2.2v0.4
			C56.4,72.7,55.4,73.7,54.2,73.7z M43.2,70.1c-0.5,0-0.9,0.4-0.9,0.9v0.4c0,0.5,0.4,0.9,0.9,0.9h11c0.5,0,0.9-0.4,0.9-0.9V71
			c0-0.5-0.4-0.9-0.9-0.9H43.2z"/>
	</g>
	<g>
		<path class="st0" d="M54.2,81.6h-11c-1.2,0-2.2-1-2.2-2.2v-0.4c0-1.2,1-2.2,2.2-2.2h11c1.2,0,2.2,1,2.2,2.2v0.4
			C56.4,80.6,55.4,81.6,54.2,81.6z M43.2,78c-0.5,0-0.9,0.4-0.9,0.9v0.4c0,0.5,0.4,0.9,0.9,0.9h11c0.5,0,0.9-0.4,0.9-0.9v-0.4
			c0-0.5-0.4-0.9-0.9-0.9H43.2z"/>
	</g>
	<g>
		<path class="st0" d="M34.3,73.4c-0.4,0-0.6-0.3-0.6-0.6v-5.5c0-0.4,0.3-0.6,0.6-0.6c0.4,0,0.6,0.3,0.6,0.6v5.5
			C34.9,73.1,34.6,73.4,34.3,73.4z"/>
	</g>
	<g>
		<path class="st1" d="M18.1,89.2h18c0.7,0,1.3-0.6,1.3-1.3l0,0c0-0.7-0.6-1.3-1.3-1.3h-18c-0.7,0-1.3,0.6-1.3,1.3l0,0
			C16.8,88.6,17.4,89.2,18.1,89.2z"/>
	</g>
	<g>
		<path class="st1" d="M15.4,98.1h23.4c0.7,0,1.3,0.7,1.3,1.6c0,0.9-0.6,1.6-1.3,1.6h-2H26.7H15.4c-0.7,0-1.3-0.7-1.3-1.6
			C14.2,98.9,14.7,98.1,15.4,98.1z"/>
	</g>
	<g>
		<path class="st1" d="M26.1,55.7c-1.5-0.1-2.9-0.4-4.1-1.4c-0.6-0.6-1.1-1.3-1.6-2c2.7-0.6,6.3-0.4,6.3-0.4L26.1,55.7L26.1,55.7z"
			/>
	</g>
	<g>
		<path class="st1" d="M13.2,57.2c1-1.9,2.7-3.5,4.7-4.3c-0.1,1.2,0,2.3,0.1,3.5c0.1,1.5-0.5,2.5-0.9,3.9c-0.3,1.2-0.6,2.9-0.5,4.2
			c0.1,0.8,0.4,1.6,0.6,2.4c0,0.1,0,0.2,0,0.3c1.1,4.3,3.1,8.4,3.5,12.8l-0.7,3c-0.2-2.5-0.9-4.8-2-7c-1.8-3.6-4.5-6.7-5.5-10.6
			C11.8,62.8,11.9,59.7,13.2,57.2z"/>
	</g>
	<g>
		<path class="st0" d="M35.9,87.2H18.4c-0.2,0-0.5-0.1-0.6-0.3c-0.1-0.2-0.1-0.5,0-0.7c0,0,2.1-3.1,2.1-7.6c0-2.5-0.9-4.6-1.8-6.8
			c-0.8-1.9-1.6-3.9-1.9-6.1c-0.5-4.2,0.7-6.9,1.1-7.7c-0.4-4,0.2-7.3,0.2-7.5c0-0.2,0.2-0.4,0.4-0.5c0.2-0.1,0.5,0,0.6,0.1l4.7,4.4
			c4.1,0.3,8.7,2.3,10.7,3.2c0.4,0.2,0.8,0.3,0.9,0.4c0.4,0.1,0.8,0.2,1.4,0.2c0.3,0,0.8,0.1,1.3,0.2c2,0.3,2,1.8,2,2.6v0.1
			c0,0.3,0.2,1.1,0.4,1.7c0.2,0.7,0.4,1.4,0.4,1.8c0,0.7-0.3,1.4-1,2c-0.5,0.5-1.3,0.8-2,0.9c-0.3,0.1-0.4,0.2-0.6,0.4
			c-0.2,0.3-0.7,0.9-1.7,0.5c-1-0.3-1.5-1.3-1.7-1.9c-1.7-0.1-4,0.2-4.5,1c0,0.1,0.2,0.5,1.5,1.4c0.1,0.1,0.2,0.1,0.2,0.2
			c0.7,0.5,1.4,1,2.1,1.5c0.9,0.6,1.8,1.3,2.7,2c2.2,1.8,3.7,3.6,3.9,6.4c0.2,2.4-0.5,4.9-2,6.9c0,0,0,0-0.1,0.1
			C36.7,86.8,36.4,87.2,35.9,87.2z M35.6,86L35.6,86L35.6,86z M19.5,86h16.2c0.1-0.1,0.2-0.3,0.4-0.5c0-0.1,0.1-0.1,0.1-0.1
			c1.3-1.7,1.9-3.9,1.8-6c-0.2-2.4-1.5-3.9-3.5-5.5c-0.8-0.7-1.7-1.3-2.6-2c-0.7-0.5-1.4-1-2.1-1.6c-0.1,0-0.1-0.1-0.2-0.2
			c-0.9-0.6-2.5-1.8-1.9-3.1c1.1-2.1,5.6-1.7,6.2-1.7c0.3,0,0.5,0.2,0.6,0.5c0.1,0.3,0.4,1.2,1,1.4c0.1,0,0.1,0,0.2,0
			c0,0,0.1-0.1,0.1-0.2c0.2-0.3,0.6-0.7,1.4-0.9c0.5-0.1,1-0.3,1.4-0.7l0,0c0.4-0.3,0.5-0.6,0.5-1c0-0.2-0.2-0.9-0.3-1.4
			c-0.2-0.8-0.4-1.6-0.4-2.1v-0.1c0-0.9,0-1.2-0.9-1.3c-0.5-0.1-0.9-0.1-1.3-0.1c-0.6-0.1-1.1-0.1-1.6-0.3c-0.2-0.1-0.5-0.2-1-0.4
			c-1.9-0.9-6.5-2.9-10.4-3.1c-0.2,0-0.3-0.1-0.4-0.2l-4-3.7c-0.1,1.3-0.3,3.6,0,6.1c0,0.1,0,0.3-0.1,0.4c0,0-1.5,2.7-1,7.1
			c0.2,2,1,3.8,1.8,5.7c0.9,2.3,1.9,4.6,1.9,7.3C21.3,82,20.2,84.6,19.5,86z"/>
	</g>
	<g>
		<path class="st0" d="M36.2,89.8h-18c-1.1,0-1.9-0.9-1.9-1.9c0-1.1,0.9-1.9,1.9-1.9h18c1.1,0,1.9,0.9,1.9,1.9
			C38.1,88.9,37.2,89.8,36.2,89.8z M18.1,87.2c-0.4,0-0.6,0.3-0.6,0.6c0,0.4,0.3,0.6,0.6,0.6h18c0.4,0,0.6-0.3,0.6-0.6
			c0-0.4-0.3-0.6-0.6-0.6H18.1z"/>
	</g>
	<g>
		<path class="st0" d="M34.4,102h-2.1c-0.4,0-0.6-0.3-0.6-0.6s0.3-0.6,0.6-0.6h2.1c0.4,0,0.6,0.3,0.6,0.6S34.7,102,34.4,102z"/>
	</g>
	<g>
		<path class="st0" d="M29.8,102h-0.7c-0.4,0-0.6-0.3-0.6-0.6s0.3-0.6,0.6-0.6h0.7c0.4,0,0.6,0.3,0.6,0.6S30.1,102,29.8,102z"/>
	</g>
	<g>
		<path class="st0" d="M38.9,102h-2c-0.4,0-0.6-0.3-0.6-0.6s0.3-0.6,0.6-0.6h2c0.3,0,0.6-0.4,0.6-1c0-0.6-0.3-1-0.6-1H15.4
			c-0.3,0-0.6,0.4-0.6,1c0,0.6,0.3,1,0.6,1h11.3c0.4,0,0.6,0.3,0.6,0.6s-0.3,0.6-0.6,0.6H15.4c-1.1,0-1.9-1-1.9-2.3
			c0-1.2,0.9-2.3,1.9-2.3h23.4c1.1,0,1.9,1,1.9,2.3C40.8,101,39.9,102,38.9,102z"/>
	</g>
	<g>
		<path class="st0" d="M38.9,98.8c0,0-0.1,0-0.1,0c-0.3-0.1-0.6-0.4-0.5-0.8l0,0c0,0,1.1-4.8-2.5-8.4c-0.3-0.3-0.3-0.7,0-0.9
			c0.2-0.3,0.7-0.3,0.9,0c4.1,4.1,2.9,9.3,2.9,9.6C39.4,98.6,39.1,98.8,38.9,98.8z"/>
	</g>
	<g>
		<path class="st0" d="M15.3,98.8c-0.3,0-0.6-0.2-0.6-0.5c-0.1-0.2-1.2-5.5,2.9-9.6c0.3-0.3,0.7-0.3,0.9,0c0.3,0.3,0.3,0.7,0,0.9
			c-3.6,3.6-2.5,8.3-2.5,8.4c0.1,0.3-0.1,0.7-0.5,0.8C15.4,98.8,15.3,98.8,15.3,98.8z"/>
	</g>
	<g>
		<path class="st0" d="M20,83.7c-0.3,0-0.6-0.3-0.6-0.6c-0.2-2.3-0.9-4.6-2-6.8c-0.6-1.2-1.4-2.5-2.1-3.6c-1.4-2.2-2.8-4.4-3.4-7.1
			c-0.8-3.1-0.5-6.3,0.7-8.7c1.1-2.2,3-3.8,5.2-4.6c0.3-0.1,0.7,0.1,0.8,0.4c0.1,0.3-0.1,0.7-0.4,0.8c-1.9,0.7-3.5,2.1-4.5,4
			c-1.1,2.1-1.3,5-0.6,7.8c0.6,2.4,1.9,4.5,3.3,6.7c0.7,1.2,1.5,2.5,2.2,3.8c1.2,2.3,1.9,4.8,2.1,7.2C20.7,83.4,20.4,83.7,20,83.7
			C20,83.7,20,83.7,20,83.7z"/>
	</g>
	<g>
		<path class="st0" d="M26.1,56.3C26.1,56.3,26,56.3,26.1,56.3c-0.4-0.1-0.7-0.4-0.6-0.7l0.5-3.2c-1.2,0-3.6,0-5.5,0.5
			c-0.3,0.1-0.7-0.1-0.8-0.5c-0.1-0.3,0.1-0.7,0.5-0.8c2.8-0.7,6.5-0.5,6.6-0.5c0.2,0,0.3,0.1,0.5,0.2c0.1,0.1,0.2,0.3,0.1,0.5
			l-0.6,3.9C26.7,56.1,26.4,56.3,26.1,56.3z"/>
	</g>
	<g>
		<path class="st0" d="M104.4,94.4h-2.2c-0.4,0-0.6-0.3-0.6-0.6c0-0.4,0.3-0.6,0.6-0.6h2.2c0.4,0,0.6,0.3,0.6,0.6
			C105.1,94.1,104.8,94.4,104.4,94.4z"/>
	</g>
	<g>
		<path class="st0" d="M108,94.4h-1.2c-0.4,0-0.6-0.3-0.6-0.6c0-0.4,0.3-0.6,0.6-0.6h1.2c0.4,0,0.6,0.3,0.6,0.6
			C108.7,94.1,108.4,94.4,108,94.4z"/>
	</g>
	<g>
		<path class="st0" d="M111,94.4h-0.7c-0.4,0-0.6-0.3-0.6-0.6c0-0.4,0.3-0.6,0.6-0.6h0.7c0.4,0,0.6,0.3,0.6,0.6
			C111.6,94.1,111.3,94.4,111,94.4z"/>
	</g>
</g>
</svg>
